<?xml version="1.0" encoding="UTF-8" standalone="no"?>
<!-- Created with Inkscape (http://www.inkscape.org/) -->

<svg
   version="1.1"
   id="svg1"
   width="800"
   height="800"
   viewBox="0 0 800 800"
   xmlns="http://www.w3.org/2000/svg"
   xmlns:svg="http://www.w3.org/2000/svg">
  <defs
     id="defs1" />
  <g
     id="g1"
     style="fill:#7b4cc7;fill-opacity:1">
    <path
       id="path1"
       d="m 4518.25,1828.68 -21.89,-0.47 c -43.81,-1 -79.11,-11.01 -79.11,-11.01 l -1.75,33.05 c 0,0 -11.01,-0.52 -12.01,-9.02 -1.01,-8.51 -1.26,-30.79 -1.26,-30.79 0,0 -40.3,-3.01 -70.59,-12.52 -30.29,-9.51 -46.05,-14.01 -46.05,-14.01 0,0 5.03,43.77 -1.59,47.93 -6.64,4.16 -17.43,4.93 -18,-0.56 -0.56,-5.5 7.58,-13.06 7.58,-23.48 0,-10.41 -0.38,-25.93 -0.38,-25.93 0,0 -166.51,-55.26 -243.67,-102.62 l -0.04,123.14 c 0,0 61.49,25.36 85.01,27.97 23.54,2.61 19.82,9.57 5.67,13.71 -14.15,4.15 -42.23,17.54 -64.46,19.06 -22.23,1.52 -32.58,8.73 -32.58,8.73 v 17.68 c 0,0 15.41,1.9 17.49,6.25 2.08,4.36 -17.06,6.26 -17.06,6.26 v 14.59 c 0,0 -8.71,-2.09 -48.7,-1.71 -39.97,0.39 -50.39,2.09 -51.53,-1.32 -1.14,-3.41 -0.57,-12.32 -0.57,-12.32 0,0 -14.31,0.52 -14.47,-4.92 -0.17,-5.44 13.84,-5.11 13.84,-5.11 v -25.87 c 0,0 -22.25,-0.99 -65.77,-6.1 -43.52,-5.11 -47.48,-13.02 -46.16,-14.67 1.32,-1.65 47.31,-24.57 77.48,-29.85 30.17,-5.27 39.61,-8.71 39.61,-8.71 v -196.61 l -11.93,-17.81 -163.05,-66.34 -7.02,20.07 -40.4,3.02 -16.3,58.45 c 0,0 36.38,-39.89 42.89,-45.66 6.53,-5.77 8.03,-7.53 8.03,-7.53 0,0 11.3,3.76 13.31,5.77 2,2.01 5.77,5.52 5.77,5.52 l -58.96,63.72 -10.54,0.5 c 0,0 -10.36,22.82 -14.72,27 -4.36,4.17 -13.47,8.15 -13.47,8.15 l 13.47,14.81 15.18,-21.07 c 0,0 18.65,32.67 42.25,56.27 23.59,23.6 31.13,29.37 31.13,29.37 l -12.81,24.85 c 0,0 -42.42,-37.65 -50.7,-46.94 -8.29,-9.29 -42.68,-48.95 -42.68,-48.95 0,0 -3.77,4.02 -7.03,4.53 -3.26,0.49 -9.03,4.76 -9.03,4.76 l 10.29,10.04 c 0,0 -28.64,28.07 -50.04,52.31 -21.39,24.23 -29.47,33.83 -29.47,33.83 l -18.78,-20.95 c 0,0 33.19,-37.12 50,-53.28 16.81,-16.16 39.55,-37.15 39.55,-37.15 0,0 -39.51,-32.72 -65.72,-55.44 -26.22,-22.73 -32.98,-31.03 -32.98,-31.03 l 15.72,-16.16 c 0,0 19.01,14.2 35.83,31.24 16.82,17.04 20.54,20.32 24.47,19.44 3.92,-0.88 8.94,-4.59 4.58,-13.32 -4.37,-8.74 -15.07,-56.15 -15.07,-56.15 0,0 -32.04,-5.77 -50.64,-9.03 -18.59,-3.27 -5.28,-15.33 -0.25,-29.15 5.03,-13.82 30.19,-56.63 30.19,-56.63 0,0 -53.29,-24.38 -75.65,-33.17 -2.68,-1.06 -5.26,-2.18 -7.78,-3.35 2.07,43.94 2.86,84.27 2.7,121.64 l -55.45,-6.46 c 8.35,-42.84 14.32,-86.47 15.75,-135.42 l -11.79,-5.32 c -1.44,49.33 -7.65,94.62 -16.28,139.29 -6.32,-2.44 -73.54,-28.21 -107.66,-34.97 5.9,-42.17 11.93,-87.27 17.45,-137.42 l -0.77,-0.27 -5.61,-2.08 c -14.17,103.43 -46.64,240.36 -51.74,343.39 -1.88,38 -2.96,72.33 -3.44,103.24 l -0.42,-0.23 0.3,9.12 c -1.81,147.47 10.04,213.51 11.47,222.13 l 12.42,10.48 c -4.92,-42.44 -8.24,-81.33 -10.26,-117.61 12.98,5.91 39.52,18.54 61.35,32.52 -0.56,43.8 2.76,88.78 11.61,135.44 l -61.98,-44.17 -16.48,-13.91 -0.73,-1.27 c -0.06,-0.36 -19.85,-98.04 -8.08,-335.94 5.12,-103.5 37.67,-240.97 51.9,-344.71 l -61.11,-21.85 v 79.78 c 0,0 -2.9,1.09 -3.28,1.85 -0.37,0.75 -0.5,6.63 0.13,8.51 0.62,1.88 0.25,7.14 -1.38,7.14 -1.63,0 -6.76,-0.38 -5.26,-3.76 1.51,-3.38 2.39,-4.51 1.63,-8.51 -0.76,-4.01 -0.63,-5.89 -1.38,-8.14 -0.75,-2.25 0.5,1.26 0.5,-7 0,-8.27 -1.5,-26.92 -1.5,-29.79 0,-2.89 -0.59,-6.44 -0.59,-6.44 l -16.72,0.51 c 0,0 1.65,14.4 -3.64,15.4 -5.3,0.99 -8.11,-1.34 -8.28,-6.3 -0.17,-4.97 -1.49,-11.42 -1.49,-11.42 l -18.05,2.65 c 0,0 -0.17,30.13 0,33.11 0.17,2.98 3.64,5.8 1.49,9.6 -2.15,3.81 -0.99,9.44 -0.99,9.44 0,0 -1.17,1.83 -0.5,5.47 0.66,3.64 -5.3,6.79 -6.79,5.63 -1.49,-1.16 -1.32,-5.14 -0.33,-5.96 0.99,-0.83 1.32,-2.16 0.49,-5.63 -0.82,-3.48 -9.76,-3.47 -8.44,-5.46 1.33,-2 6.3,-0.18 6.63,-4.31 0.33,-4.14 0.99,-14.07 0.33,-19.54 -0.66,-5.46 -1.92,-23.68 -1.92,-23.68 h -111.41 c 0,0 -1.25,89.88 -2.2,96.36 -0.95,6.47 -12.76,2.47 -15.24,-11.05 -2.48,-13.53 0.76,-29.15 3.04,-39.05 2.3,-9.91 5.15,-8.77 4.96,-19.82 -0.19,-11.04 0.56,-27.31 0.56,-27.31 h -32.47 c 0,0 -5.64,16.74 -0.5,21.04 5.14,4.31 6.8,15.41 2.98,15.57 -3.81,0.17 -17.56,0.17 -17.56,0.17 0,0 5.18,8.27 10.51,14.94 5.34,6.68 3.82,12.59 -5.14,25.93 -8.96,13.34 -21.16,24.58 -21.16,24.58 v 29.43 h -5.98 v -29.84 c 0,0 -15.37,-11.19 -23.16,-24.46 -7.8,-13.26 -7.8,-20.88 -6.14,-23.87 1.66,-2.99 7.3,-9.29 7.3,-9.29 0,0 -11.61,0.99 -11.28,-5.31 0.33,-6.3 0.97,-9.92 2.08,-15.84 1.09,-5.92 4.83,-12.73 3.73,-17.33 -1.1,-4.61 -1.1,-4.61 -1.1,-4.61 h -28.08 c 0,0 -4.91,65.32 -0.96,83.3 3.95,18 -1.53,27.87 -3.73,22.16 -2.19,-5.7 -3.73,-15.58 -6.36,-18.87 -2.64,-3.29 -7.24,-1.53 -6.37,-9.87 0.88,-8.33 6.69,-78 6.69,-78 h -112.59 c 0,0 -7.18,33.63 -3,35.8 4.19,2.16 6.5,7.22 2.6,8.37 -3.9,1.15 -8.08,2.45 -7.22,4.91 0.87,2.45 2.6,12.7 -0.72,12.56 -3.32,-0.15 -8.08,-3.91 -7.36,-7.8 0.72,-3.9 3.18,-4.04 0.58,-5.92 -2.6,-1.87 -8.66,1.02 -8.95,-2.74 -0.29,-3.76 -0.14,-4.04 1.59,-6.5 1.73,-2.45 2.45,-1.16 2.45,-4.91 0,-3.75 -0.05,-35.28 -0.05,-35.28 h -13.29 v 14.29 c 0,0 5.64,2.89 3.03,5.64 -2.59,2.74 -1.29,4.9 -9.81,4.18 -8.53,-0.72 -13.72,-1.15 -12.85,-4.18 0.86,-3.04 3.6,-2.16 3.32,-6.36 -0.29,-4.19 -2.46,-12.85 -2.46,-12.85 l -14.79,3.96 c 0,0 0.21,24.34 1.36,30.26 1.16,5.92 3.61,10.69 3.61,13.86 0,3.18 1.01,3.03 -3.17,6.2 -4.19,3.19 -6.21,3.9 -7.22,5.93 -1.01,2.02 -6.65,4.76 -9.38,4.33 -2.75,-0.43 -4.34,-6.79 -3.9,-9.67 0.43,-2.89 0,-96.23 0,-96.23 0,0 2.11,-3.24 -3.81,-0.19 -5.92,3.06 -21.2,12.03 -21.2,15.66 0,3.64 3.63,16.24 4.01,22.16 0.39,5.92 -13.17,7.26 -16.8,7.26 -3.63,0 -3.83,0 -3.83,0 v 81.79 c 0,0 3.65,3.15 7.97,5.98 4.32,2.82 2.66,5.15 -10.97,9.14 -13.63,3.98 -34.22,6.97 -34.22,6.97 v 25.17 c 0,0 5.93,-0.29 6.21,1.74 0.29,2.02 -7.37,5.34 -7.37,5.34 0,0 1.02,13.15 -3.61,11.27 -4.62,-1.87 -10.4,-10.55 -10.4,-10.55 h -14.89 c 0,0 3.33,12.73 -0.14,12.87 -3.47,0.14 -7.37,-11.86 -7.37,-11.86 h -25.59 c 0,0 1.02,16.77 -3.89,12.14 -4.92,-4.62 -5.64,-13.87 -5.64,-13.87 l -18.79,0.15 c 0,0 2.46,10.98 -1.59,10.98 -4.05,0 -6.07,-10.98 -6.07,-10.98 0,0 -5.49,-0.72 -5.2,-3.76 0.29,-3.03 4.04,-3.47 4.04,-3.47 v -25.65 c 0,0 -24.14,-1.34 -34.27,-1.72 -10.13,-0.38 -9.56,-6.31 -6.31,-7.65 3.25,-1.33 3.64,-1.91 3.64,-1.91 l -2.3,-46.08 -38.8,20.27 v 405.97 h -75.32 v 20.57 h -3.5 v 27.49 h -8.87 v -27.49 h -45.25 v 27.49 h -8.87 v -27.49 h -10.11 v -22.88 h -126.54 v 26.63 h -2.65 v 60.41 h -8.87 v -60.41 h -41.99 v 60.41 h -8.88 v -60.41 h -17.07 v -26.31 h -74.9 v -237.93 l -31.18,15.18 v 506.8 h -152.59 v -208.45 h -147.54 v -118.87 h -42.08 v 26.45 h -24.11 v 53.56 l -8.73,2.34 v 51.66 h -6.97 l 0.29,-7.2 -4.66,3.82 -6.33,42.64 -12.49,-37.8 -6.83,0.16 -2.79,85.3 -4.17,3 -2.5,21.16 -3.5,0.34 -4.16,-23.66 -4.17,-1.17 -4.17,-26.33 -29.65,18.67 -1.17,23.32 -6.33,-1.16 -2,-15 -10.66,1.67 -0.83,6.83 -14.5,2.17 2.63,80.18 -5.36,-2.32 -5.65,-11.9 -3.19,0.59 -13.19,61.26 h -0.53 v 17.88 h 15.45 v 5.59 h -15.45 v 12.62 h -5.94 v -12.62 h -15.44 v -5.59 h 15.44 v -17.88 h -0.43 l -12.86,-65.56 -3,-0.66 -4,14.36 -5.68,4.67 -1.01,-78.18 -14.35,-4.86 -2.87,-14.58 -5.75,23.64 -5.73,-23.19 -35.57,-16.13 -2.65,25.84 -3.98,3.54 -2.2,19.43 -3.54,-23.63 -7.73,-2.43 3.42,-28.85 -10.92,-1.78 -0.51,-54.12 -12.2,36.08 -11.94,-45.22 -14.22,4.83 -1.28,-15.51 -2.2,-12.42 -162.83,67.11 v 24.14 H 1136.4 V 2055 h 11.58 l -20.18,23.6 -16.74,193.58 c 0,0 -0.64,13.28 5.22,17.96 5.85,4.68 9.86,5.51 9.86,5.51 v 25.58 h -13.04 v 23.69 c 0,0 4.53,-0.56 4.45,2.57 -0.09,3.12 -4.1,4.79 -7.12,7.8 -3,3.01 -2,7.03 -11.04,7.19 l -2.59,0.04 c 0.04,0.97 0.06,1.94 0.06,2.9 0,8.52 1.91,9.25 2.8,9.55 0.88,0.29 2.34,1.62 0.73,4.41 -1.62,2.79 -7.54,10.36 -7.54,10.36 0,0 -5.93,-7.57 -7.55,-10.36 -1.61,-2.79 -0.14,-4.12 0.74,-4.41 0.88,-0.3 2.79,-1.03 2.79,-9.55 0,-0.92 0.02,-1.86 0.06,-2.79 l -3.88,0.01 c -2.34,0 -10.53,-3.67 -13.05,-6.35 -2.5,-2.68 -5.35,-5.86 -5.35,-8.36 0,-2.51 5.85,-2.84 5.85,-2.84 v -25.76 h -17.55 v -21.1 c 0,0 15.15,-1.04 15.93,-14.32 0.77,-13.28 -8.65,-198.18 -8.65,-198.18 l -26.73,-27.24 h 16.55 v -35.91 c -32.75,14.28 -164.28,71.65 -186.631,81.85 -25.574,11.66 -51.145,24.22 -93.316,42.17 -42.176,17.94 -59.668,15.25 -85.692,30.06 -26.019,14.8 -108.711,49.04 -125.308,57.12 -16.602,8.08 1.343,4.04 -0.45,-11.22 -1.797,-15.25 9.871,-28.27 31.856,-62.36 21.984,-34.1 66.136,-122.98 91.89,-177.22 25.758,-54.23 90.133,-165.3 88.364,-168.26 -1.766,-2.95 6.492,-6.49 -9.735,-11.5 -16.23,-5.02 -208.234,-54.22 -230.633,-61.69 -22.398,-7.47 -121.441,-30.2 -131.183,-35.22 -9.746,-5.02 -13.285,-0.89 -12.106,-5.02 1.184,-4.13 176.204,-70.65 196.899,-80.03 20.687,-9.37 35.918,-12.89 48.41,-17.96 12.496,-5.07 33.195,-15.22 46.855,-19.91 13.665,-4.69 33.969,-11.32 70.286,-28.89 36.316,-17.58 190.382,-76.54 305.034,-125.6 114.65,-49.06 311.32,-120.69 368.34,-153.36 57.02,-32.67 47.52,-24.94 99.19,-44.55 51.68,-19.6 43.96,-7.13 93.85,-35.04 49.89,-27.92 110.47,-53.45 119.38,-57.02 8.91,-3.56 465.8,-183.094 573.33,-226.707 107.54,-43.61 163.7,-69.293 193.56,-80.649 29.88,-11.351 53.77,-12.539 81.85,-25.09 28.08,-12.546 15.52,-6.574 53.16,-25.691 37.64,-19.113 58.55,-28.074 77.67,-35.84 19.12,-7.769 98.45,-30.519 122.84,-42.265 24.4,-11.743 31.62,-9.036 58.28,-21.688 26.66,-12.648 34.79,-16.262 58.29,-28.004 23.49,-11.75 22.13,-9.496 33.88,-17.176 11.74,-7.679 16.27,-9.031 22.14,-6.773 5.87,2.262 7.67,4.973 20.78,4.973 13.1,0 69,19.117 97.36,34.835 28.35,15.719 40.66,25.625 66.28,30.411 25.63,4.781 169.4,62.496 310.45,124.648 141.05,62.152 421.88,185.176 524.09,222.826 102.2,37.66 319.66,134.4 327.45,134.4 7.8,0 19.75,-1.55 36.39,4.68 16.63,6.23 111.75,50.42 165.29,74.85 53.54,24.43 92.53,40.03 111.24,45.74 18.71,5.72 228.41,83.94 251.13,95.89 22.71,11.96 146.47,70.55 170.38,82.5 23.91,11.96 90.87,38.86 121.36,47.83 30.49,8.96 38.26,12.55 38.26,12.55 0,0 -9.57,-3.58 12.55,3.59 22.13,7.17 199.32,77.69 232.78,93.06 33.45,15.37 99.45,34.81 99.45,34.81 l 18.54,6.79 c 0,0 -170.3,46.79 -179.87,46.79 -9.57,0 -67.93,3.42 -77.51,8.21 -9.56,4.79 -17.43,9.58 -35.55,16.07 -18.12,6.5 -60.18,16.75 -81.03,21.88 -20.85,5.14 -49.57,10.6 -70.77,17.78 -21.2,7.18 -23.25,3.42 -23.94,7.87 -0.68,4.44 -1.76,20.39 39.51,97.42 41.27,77.03 101.45,170.39 123.16,219.69 21.71,49.3 30.3,71.46 30.3,71.46 0,0 -46.5,-25.37 -66,-34.94 -19.49,-9.58 -43.78,-21.89 -60.19,-30.1 -16.42,-8.21 -20.53,-12.32 -34.9,-15.74 -14.36,-3.42 -16.76,-5.8 -30.78,-11.96 -14.02,-6.16 -208.56,-75.01 -262.66,-104.15 -54.1,-29.13 -201.83,-107.4 -238.48,-117.8 -36.65,-10.4 -64.7,-18.55 -80.54,-27.6 -11.57,-6.61 -6.2,-3.51 -48.59,-19.63 z m -2709.88,-469.5 c -7.39,0.44 -14.69,0.24 -21.98,-0.16 0.97,5.86 1.95,11.72 2.82,17.59 10.41,17.94 20.03,36.23 29.66,54.21 9.24,17.28 18.09,34.79 26.06,52.68 0.1,0.21 0.2,0.44 0.39,0.66 6.03,6.24 11.48,13.04 15.18,20.86 6.41,13.43 6.61,31.28 -2.44,43.53 -8.56,11.68 -23.34,17.07 -36.95,11.18 -13.52,-5.8 -22.95,-20.53 -31.41,-31.87 -19.65,-26.24 -36.76,-54.11 -51.81,-83.17 -11.68,-22.46 -22.82,-47.61 -28.62,-73.03 -6.24,-12.93 -11.33,-26.33 -11.59,-40.44 -0.18,-10.52 4.9,-17.56 14,-22.17 4.99,-5.01 11.86,-8.53 19.97,-9.91 19.54,-3.35 38.79,-6.82 57.95,-12.13 18.28,-5.08 39.09,-12.93 56.99,-2.24 17.41,10.36 17.7,29.8 10.98,46.83 -8.55,21.66 -28,26.35 -49.2,27.58 z m 420.79,-58.22 c 1.56,1.3 3.21,2.53 5.06,3.58 7.39,4.48 15.56,8.1 23.63,11.39 7.1,2.9 14.49,5.8 22.37,5.21 1.75,-0.13 3.31,-0.55 4.57,-1.1 -14,-8.76 -27.62,-18.39 -40.94,-27.45 -11.19,-7.54 -22.27,-15.23 -33.26,-23.03 4.47,11.33 10.79,21.72 18.57,31.4 z m 63.22,-71.88 c -7.88,-8.76 -17.8,-15.77 -27.92,-21.85 -5.44,-3.34 -11.86,-7.31 -18.67,-10.23 -0.29,0 -0.49,0.02 -0.77,0.04 -5.55,1.95 -11.77,3.14 -17.9,3.94 21.59,16.25 42.79,33.03 64.38,48.81 3.5,2.55 7.1,5.12 10.5,7.68 -1.36,-6.93 -2.62,-14.36 -5.05,-21.24 -1.46,-2.37 -2.92,-4.87 -4.57,-7.15 z m 121.07,129.51 c -2.43,8.3 -12.45,15.73 -21.4,12.19 -8.07,-3.15 -15.85,-6.82 -23.53,-10.69 -5.64,-1.76 -11.38,-3.63 -17.02,-5.89 -1.26,-0.49 -2.43,-1.12 -3.59,-1.65 -3.61,5.7 -8.08,10.74 -13.72,14.9 -21.78,16.02 -51.35,23.71 -77.99,18.32 -26.16,-5.29 -49.21,-22.56 -68.17,-40.54 -17.9,-16.88 -32.58,-37.28 -42.3,-59.85 -9.15,-21.5 -14.2,-47.63 -12.84,-73.12 -8.46,-6.43 -17.12,-12.8 -25.58,-19.27 -8.46,-6.45 -18.67,-12.29 -19.93,-23.86 -1.17,-10.11 7.19,-21.34 14.68,-27.53 13.9,-11.5 34.43,-0.4 50.08,9.13 2.43,-3.55 4.96,-7.01 7.98,-10.2 17.99,-19.76 50.57,-21.18 75.36,-18.15 27.43,3.34 48.63,17.64 67.59,36.9 20.81,20.93 38.22,46.12 48.53,73.79 5.93,15.86 8.95,32.82 9.24,49.75 0,4.11 0,8.4 -0.29,12.74 1.65,0.92 3.4,1.94 5.05,2.82 23.34,12.03 58.06,27.1 47.85,60.21 z m -246.52,55.22 c -1.37,10.99 -6.04,22.12 -15.18,28.96 -10.79,8.12 -23.34,6.22 -35.01,1.13 -22.95,-10.07 -45.31,-23.79 -64.96,-39.36 3.31,17.71 4.18,39.17 -2.72,54.88 -8.17,19.04 -29.08,26.79 -46.58,14.49 -16.63,-11.65 -27.14,-34 -38.71,-50.17 -7.48,-10.43 -14.59,-21.17 -21.49,-32.07 -19.55,-28.26 -38.71,-56.71 -58.25,-85.03 -6.91,-10.06 -23.73,-26.74 -17.51,-40.29 5.26,-11.41 18.87,-20 31.12,-21.06 29.96,-2.54 50.28,30.09 65.55,50.96 5.93,8 11.67,16 17.7,23.92 -1.85,-7.54 -3.02,-15.53 -1.75,-22.71 2.04,-10.83 11.77,-17.91 22.66,-15.92 10.01,1.79 19.93,8.96 28,14.7 7.2,5.1 14.2,10.42 21.11,15.75 -1.95,-3.65 -3.99,-7.31 -5.74,-10.98 -10.21,-20.74 -21.79,-41.51 -28.88,-63.54 -5.45,-16.74 -6.42,-47 16.82,-50.44 8.46,-1.27 16.14,3.27 22.17,8.87 8.66,7.99 16.73,17.64 24.22,26.75 15.36,18.75 28.59,39.13 40.06,60.49 11.09,20.82 18.78,42.76 27.82,64.53 8.94,21.72 22.75,41.59 19.55,66.14 z m -588.37,237.14 c -6.6,20.73 -29.79,23.71 -47.97,18.76 -21.94,-5.94 -41.55,-19.76 -60.19,-32.66 0.09,9.99 -0.71,19.97 -2.14,29.88 -1.96,13.24 -5.88,26.78 -16.49,35.69 -27.2,22.76 -52.34,-11.96 -67.15,-31.99 -18.81,-25.67 -35.48,-53.22 -51.71,-80.65 -9.9,-16.8 -21.41,-33.43 -28.98,-51.29 -5.35,-7.52 -10.61,-15.09 -14.8,-23.06 -7.5,-14.03 -4.55,-33.41 10.7,-40.74 8.83,-4.21 19.16,-3.66 28.71,-0.61 9,1.93 17.47,7.19 23.81,14.36 11.49,10.15 20.14,22.33 30.31,34.16 4.46,5.22 9.18,10.24 14,15.18 0.18,-2.34 0.53,-4.67 1.06,-6.92 3.66,-14.02 16.68,-23.37 31.04,-21.17 13.56,2.09 24.25,11.56 34.24,20.45 -3.57,-6.94 -6.95,-13.96 -10.16,-21.07 -0.19,-0.36 -0.28,-0.73 -0.45,-1.08 -4.01,-5.43 -7.85,-11.06 -11.33,-17.31 -9.54,-17.11 -21.22,-35.69 -11.77,-55.54 8.2,-17.23 28.17,-22.19 44.67,-13.26 8.39,4.52 14.18,11.85 19.71,19.43 6.87,9.63 13.74,19.26 19.71,29.57 21.75,37.84 39.67,78.06 53.4,119.5 3.4,10.08 6.33,20.25 9.45,30.38 3.04,9.91 5.54,19.81 2.33,29.99 z m 90.59,-108.54 c 3.74,-0.37 6.24,-3.11 6.78,-9.61 0.88,-10.62 -0.36,-22.21 -1.79,-32.73 -1.16,-8.41 -2.49,-16.79 -4.01,-25.16 -4.46,1.82 -9.19,3.11 -13.73,4.43 -6.51,1.89 -13.02,3.87 -19.53,5.84 -2.67,0.82 -5.44,1.57 -8.21,2.27 6.33,8.73 12.76,17.44 19,26.2 6.96,9.6 14.71,18.89 21.49,28.76 z m 70.35,17.34 c -7.04,31.04 -35.13,57.18 -68.21,52.28 -34.51,-5.12 -57.24,-38.32 -77.04,-64.05 -23,-29.92 -43.87,-61.48 -65.36,-92.52 -8.65,-12.39 -22.38,-29.08 -23.54,-44.69 -1.24,-16.2 12.58,-27.18 28.17,-23.08 24.88,6.56 42.27,25.65 57.16,46.1 4.1,0.54 8.21,0.91 12.31,0.87 3.83,-0.71 7.66,-1.34 11.59,-1.88 3.66,-1.14 7.13,-2.66 10.25,-4.29 5.62,-2.94 12.21,-7.67 19.17,-11.34 -5.44,-12.14 -10.51,-24.52 -13.37,-37.49 -3.49,-15.65 -0.27,-31.6 14.35,-40.33 13.37,-7.91 29.16,-1.34 38.07,9.94 10.52,13.29 16.68,30.96 22.83,46.57 6.96,17.43 12.22,35.38 17.39,53.41 9.9,34.84 24.61,73.93 16.23,110.5 z m 1768.08,-16.89 c -0.25,33.43 -1.26,64.45 -2.8,93.49 -0.73,0.61 -1.48,1.18 -2.26,1.71 -23.35,15.83 -60.92,7.55 -75.83,3.32 8.73,-36.31 17.14,-70.54 24.09,-105.13 z m -3.3,102.57 c -2,34.94 -4.74,66.99 -7.78,96.95 -17.13,3.82 -58.43,11.74 -89.72,7.36 -1.51,-0.21 -3.05,-0.49 -4.63,-0.84 6.12,-29.3 12.81,-58.19 19.55,-86.62 l 3.32,-13.94 c 15.59,4.37 53.62,12.52 79.26,-2.91 z m -8.56,104.48 c -4.02,38.59 -8.49,73.74 -12.42,107.16 -29.94,19.46 -79.15,5 -83.54,3.65 l -15.65,-8.56 c 4.36,-32.55 10.12,-64.63 16.59,-96.23 1.73,0.38 3.43,0.7 5.09,0.93 31.04,4.34 71.18,-2.9 89.93,-6.95 z m -13.45,116.01 c -4.59,39.55 -8.29,76.88 -9.46,114.94 l -1.47,1.1 c -7.7,0.68 -58.82,4.29 -84.64,-17.6 -3.3,-2.79 -6.98,-5.59 -10.91,-8.37 0.66,-32.48 3.31,-64.56 7.32,-96.2 l 13.53,7.4 0.63,0.27 c 0.16,0.05 50.57,16.17 85,-1.54 z m -9.67,123.13 c -0.53,25.02 0.07,50.45 2.28,77.11 0.19,-28.83 1.37,-55.61 3.19,-80.27 l 21.46,-15.97 c 1.34,35.88 2.92,62.9 3.63,73.96 1.96,30.01 -29.03,50.26 -29.03,50.26 -33.98,9.19 -71.27,4.41 -87.63,1.49 -8.11,-44.28 -11.25,-87.92 -10.84,-130.86 2.25,1.69 4.4,3.39 6.39,5.07 28.84,24.44 85.09,19.73 90.55,19.21 z m 6.22,-12.66 c 4.09,-49.43 10.77,-89.86 17.33,-120.59 0.38,-0.4 0.76,-0.8 1.13,-1.22 -0.01,38.57 0.84,75.49 1.93,106.63 z m -40.34,-441.6 c -6.77,34.03 -14.87,67.8 -23.24,102.85 l -98.53,-34.09 c 4.45,-33.39 9.41,-67.49 14.5,-103.69 34.89,6.96 106.32,34.66 106.54,34.75 z m -24.91,109.86 -3.55,14.91 c -6.75,28.56 -13.52,57.12 -19.72,85.85 -31.26,-11.33 -69.43,-39.62 -84.18,-51.09 2.66,-27.95 5.95,-55.52 9.63,-83.52 z m -24.78,107.8 c -6.53,30.74 -12.38,61.68 -16.85,93.05 l -72.47,-39.66 c 0.78,-35.93 2.87,-69.83 5.87,-103.07 17.12,13.06 53.18,38.9 83.45,49.68 z m -17.91,100.64 c -4.19,31.03 -7,62.48 -7.77,94.55 -23.64,-14.64 -51.15,-27.39 -61.94,-32.21 -1.83,-36.11 -2.37,-69.64 -1.86,-101.51 z m -40.65,216.61 c 0,0 36.93,39.58 58.79,40.76 21.86,1.19 65.59,-2.06 65.59,-2.06 0,0 -10.34,18.61 -28.36,21.56 -18.02,2.96 -47.86,-4.73 -47.86,-4.73 0,0 -49.04,-19.49 -48.16,-55.53 z m -324.56,-940.6 c 0,0 1.82,-52.83 2.35,-104.4 0.52,-51.567 0.52,-47.923 0.52,-65.634 0,-17.718 6.29,-112.336 5.9,-132.828 -0.4,-20.492 -1.98,-43.336 -3.15,-53.183 -1.18,-9.852 -2.36,-31.914 -0.4,-42.946 1.97,-11.035 5.52,-39.793 5.52,-39.793 0,0 31.51,9.653 50.27,21.868 18.77,12.211 48.56,33.656 62.57,38.129 14,4.472 36.94,15.789 42,16.089 5.07,0.297 122.38,46.403 190.94,75.957 68.57,29.555 82.35,31.918 87.08,34.282 4.73,2.367 242.97,101.367 281.54,118.566 38.57,17.193 70.89,24.483 86.52,29.703 15.63,5.22 87.72,29.15 107.43,42.55 19.7,13.4 52.42,29.17 65.03,33.5 12.61,4.33 39.03,18.52 70.16,27.98 31.14,9.47 24.07,12.09 70.76,29.77 46.69,17.69 58.49,25.4 68.46,29.48 9.97,4.08 85.24,40.12 200.96,85.69 115.72,45.57 160.96,64.58 194.06,82.51 33.1,17.93 67.58,33.79 98.6,42.75 31.03,8.97 155.19,61.93 274.52,107.5 119.33,45.58 198.02,66.52 249.68,91.75 51.65,25.24 134.06,74.53 134.06,74.53 0,0 -194.83,63.36 -242.9,68.8 -48.07,5.44 -60.59,16.84 -60.59,16.84 0,0 15.21,53.72 49.12,105.9 33.92,52.18 45.91,86.61 53.75,112.18 7.82,25.56 19.3,50.6 22.95,57.39 3.65,6.78 4.17,7.3 4.17,7.3 0,0 -145.05,-63.13 -181.05,-77.22 -35.99,-14.08 -66.25,-43.82 -108.51,-53.74 -42.27,-9.91 -366.92,-152.66 -429.93,-176.07 -63.01,-23.4 -277.33,-107.87 -374.07,-148.93 -96.75,-41.07 -245.4,-102.86 -263.35,-113.21 -17.95,-10.36 -78.51,-35.55 -99.21,-40.38 -20.7,-4.83 -62.8,-21.4 -104.22,-41.42 -41.41,-20.01 -81.92,-30.5 -135.68,-58.17 -53.76,-27.67 -75.16,-34.97 -104.39,-45.93 -29.23,-10.96 -216.08,-79.86 -216.08,-79.86 0,0 -128.4,-61.07 -155.39,-77.3 z m 1033.55,519.06 v 21.72 c 0,0 14.96,7.87 38.44,19.21 v -27.31 z m 48.65,17.22 v 28.6 c 9.28,4.42 19.58,9.21 30.56,14.18 v -31.94 z m 40.76,14.44 v 32.89 c 9.8,4.35 20.06,8.79 30.57,13.17 v -35.23 z m 40.76,14.43 v 35.82 l 6.27,2.53 c 8.04,3.21 16.16,6.36 24.3,9.43 v -36.94 z m 40.77,14.44 v 37.14 c 10.28,3.79 20.53,7.43 30.57,10.9 v -37.21 z m 40.76,14.44 v 37.09 c 9.28,3.15 18.33,6.13 27.03,8.92 v -36.44 z m 40.03,14.17 v 35.96 c 28.05,8.76 51.23,15.2 64.41,18.29 29.31,6.88 48.16,8.66 48.16,8.66 v -21.74 l -15.23,-6.69 z m 131.97,49.76 v 14.43 c 0,0 20.6,4.58 37.42,4.58 1.63,0 3.12,-0.06 4.49,-0.18 -12.83,-5.86 -28.26,-12.77 -41.91,-18.83 z m -694.48,-253.97 c 0,0 -6.87,1.4 -8.39,-3.81 -1.53,-5.21 -0.51,-18.42 -0.51,-18.42 0,0 2.41,-0.01 7.24,3.68 4.84,3.69 6.61,12.2 6.61,12.2 l 0.52,5.46 z m -136.27,-40.29 -17.79,32.78 h 21.99 z m 358.22,135.52 v 125.41 c 0,0 2.32,13.54 12.3,15.54 9.97,1.99 12.86,-5.77 12.86,-17.53 0,-11.76 0,-107.36 0,-107.36 z m 36.16,27.32 v 69.57 c 0,0 -3.06,14.48 7.75,16.6 10.81,2.13 13.9,-8.49 13.9,-16.41 0,-7.91 0,-58.49 0,-58.49 z m -32.82,-45.62 22.66,17.76 -2,-11.33 z m 40.55,26.92 c 3.3,0.89 14.35,8.51 14.35,8.51 l 0.88,-13.07 -12.95,-3.94 -2.28,8.5"
       style="fill:#7b4cc7;fill-opacity:1;fill-rule:evenodd;stroke:none"
       transform="matrix(0.13333333,0,0,-0.13333333,0,800)" />
    <path
       id="path2"
       d="m 383.906,4308.75 c 0,0 202.344,72.62 292.703,113.64 710.941,322.77 1549.911,587.11 2202.251,926.35 24.12,12.55 45.35,20.26 58.85,21.23 13.51,0.96 27.01,4.82 39.08,-1.93 12.05,-6.75 87,-43.89 133.98,-58.99 47,-15.11 63.37,-19.3 92.32,-32.31 28.94,-13.01 73,-29.79 92.3,-40.7 19.3,-10.91 36.93,-16.37 52.45,-21.4 15.52,-5.03 22.65,-4.19 57.9,-19.3 35.24,-15.11 374.5,-150.41 472.15,-191.89 97.64,-41.48 1008.63,-423.32 1027.94,-430.08 19.3,-6.76 13.04,-2.41 95.56,-34.26 82.53,-31.86 142.86,-66.13 194.51,-81.09 51.64,-14.96 62.25,-19.79 85.9,-31.37 23.66,-11.58 65.64,-27.03 83.02,-34.27 17.37,-7.24 29.93,-13.03 46.82,-20.27 16.88,-7.24 16.41,-7.72 27.5,-11.1 11.11,-3.37 13.52,-6.27 21.72,-10.13 8.21,-3.86 46.82,-32.79 82.36,-43.57 35.55,-10.79 53.64,-10.47 54.28,-15.87 0.63,-5.4 -6.66,-9.21 -29.84,-13.01 -23.17,-3.81 -20.95,-5.4 -40.62,-9.53 -19.68,-4.12 -25.4,-0.31 -47.61,-5.39 -22.22,-5.08 -116.92,-48.69 -141.28,-52.47 -24.35,-3.78 -60.45,-20.57 -100.33,-24.77 -39.89,-4.2 -42.83,-9.23 -42.83,-9.23 0,0 32.69,-50.51 49.06,-89.56 16.38,-39.05 19.74,-49.98 33.18,-67.19 13.43,-17.22 88.26,-127.2 94.98,-153.24 6.72,-26.04 9.66,-31.91 15.54,-43.25 5.88,-11.34 15.54,-20.17 26.04,-39.9 10.5,-19.74 16.79,-32.76 17.22,-35.28 0.42,-2.52 -42.42,18.89 -91.13,36.95 -48.72,18.07 -38.23,11.77 -60.9,23.95 -22.68,12.18 -25.62,12.18 -41.58,20.99 -15.96,8.83 -284.06,119.61 -316,136.85 -31.94,17.25 -169.92,68.99 -240.19,97.1 -70.27,28.11 -86.24,36.41 -144.37,59.41 -58.13,23 -84.32,32.58 -84.32,32.58 0,0 -364.79,161.6 -383.25,165.49 -18.46,3.88 -221.53,90.36 -243.88,100.08 -22.34,9.71 -194.68,84.41 -237.49,92.71 -42.8,8.31 -135.45,61.98 -139.27,64.53 -3.84,2.56 -82.42,28.12 -99.03,32.59 -16.62,4.47 -40.89,26.83 -55.58,31.94 -14.7,5.11 -40.26,7.03 -68.37,21.73 -28.11,14.69 -76.67,40.89 -93.28,46 -16.61,5.11 -23,14.69 -58.14,19.8 -35.14,5.11 -74.75,28.11 -83.05,33.86 -8.31,5.75 -14.06,10.23 -14.06,10.23 C 2369.07,4511.45 1740.36,4270.25 1128.39,4014.2 1009.2,3964.33 867.25,3905.12 818.305,3884.47 c -48.942,-20.65 -67.371,-27.97 -80.723,-34.64 -13.348,-6.67 -26.379,-9.22 -30.191,-10.49 -3.813,-1.27 -9.528,-1.27 -20.02,-7.31 -10.488,-6.04 -22.566,-9.53 -37.187,-14.3 -14.618,-4.77 -17.793,-3.18 -17.793,-3.18 0,0 48.804,89.38 74.023,140.18 25.219,50.81 106.774,220.09 109.266,223.96 2.488,3.87 5.804,3.04 1.937,5.53 -3.871,2.49 -221.89,65.19 -261.066,73.89 -39.176,8.7 -172.645,50.64 -172.645,50.64 z m 2903.324,714.53 c -3.31,-5.28 -8.75,-9.3 -13.91,-12.56 -5.64,-3.53 -11.96,-6.39 -18.77,-6.59 -3.01,-0.1 -5.84,0.26 -8.65,1.17 -2.14,0.66 -5.64,1.95 -6.71,3.99 -0.88,1.67 0.19,3.67 1.07,5.45 1.85,3.99 4.37,7.75 6.61,11.55 3.89,6.82 7.97,13.64 11.67,20.64 1.46,-0.42 2.92,-0.69 4.77,-0.9 0.68,-0.07 2.91,-0.33 3.4,-0.33 3.01,-0.56 6.03,-1.57 9.14,-2.32 1.56,-0.39 3.21,-0.79 4.77,-1.27 0.19,-0.06 1.07,-0.37 1.16,-0.37 1.17,-0.43 2.24,-0.91 3.41,-1.36 1.45,-0.56 0.48,0.17 1.55,-0.85 0.97,-0.89 1.65,-1.42 2.24,-2.51 1.07,-1.78 1.27,-3.54 1.07,-6.22 -0.19,-2.22 -1.36,-5.15 -2.82,-7.52 z m 1810.09,-727.63 c -6.71,-4.83 -16.63,-5.65 -24.8,-6.83 -6.22,-0.89 -12.25,-1.82 -18.28,-2.75 -2.15,-0.33 -5.15,-1.04 -7.98,-1.32 0.39,0.48 0.59,0.97 0.88,1.45 1.84,3 3.79,5.95 5.74,8.86 3.89,5.91 8.07,11.68 12.44,17.31 2.14,2.73 4.28,5.36 6.62,7.93 0.68,-0.15 1.26,-0.32 1.75,-0.56 1.06,-0.46 2.04,-1.13 3.01,-1.7 1.75,-1.03 3.79,-1.71 5.64,-2.55 0.29,-0.15 1.95,-0.99 2.43,-1.26 0.49,-0.3 0.98,-0.62 1.56,-0.91 1.26,-0.59 2.53,-1.11 3.79,-1.58 0.39,-0.16 0.68,-0.36 0.78,-0.42 0.19,-0.13 0.29,-0.16 0.39,-0.21 0.68,-0.73 1.65,-1.93 2.23,-2.35 0.3,-0.39 0.59,-0.78 0.69,-1.17 0.09,-0.07 0.19,-0.21 0.19,-0.32 0.19,-0.38 0.58,-1.02 0.68,-1.24 0.88,-2.71 1.56,-5.5 2.24,-8.29 0,-0.06 0,-0.21 0,-0.38 0,-0.39 0,-1.21 0,-1.71 z m -81.59,-104.1 c -5.16,-1.85 -11.28,-1.03 -16.34,-0.03 -3.5,0.67 -7.2,2.55 -10.6,2.96 -0.97,0.53 -1.46,0.77 -1.95,0.89 0,0.42 0,0.84 0.2,1.28 3.5,10.52 6.81,20.8 11.86,30.64 4.76,-2.72 9.92,-4.97 14.69,-7.55 3.6,-1.92 9.62,-3.51 13.52,-6 0.77,-8.15 -4.29,-19.56 -11.38,-22.19 z m 128.75,149.52 c -13.03,15.98 -30.14,30.09 -49.3,38.18 -0.1,0.07 -0.29,0.11 -0.49,0.18 0,0.02 0,0.03 -0.1,0.05 -11.28,7.17 -24.79,13.37 -37.73,7.23 -9.72,-0.32 -17.5,-8.53 -25.28,-16.86 -13.62,-14.22 -25.48,-29.86 -36.18,-46.29 -23.14,-35.66 -49.3,-71.08 -68.07,-109.3 -4.87,-9.78 -10.51,-19.28 -14.98,-29.22 -1.85,-4.22 -3.21,-8.21 0,-12.28 3.99,-5.26 13.03,-7.82 18.67,-10.9 10.31,-5.66 20.33,-11.77 30.73,-17.41 15.37,-8.45 32.68,-22.45 51.25,-21.34 1.85,0.12 3.7,0.39 5.55,0.72 5.74,-2.53 12.25,-4.51 18.09,-4.44 10.3,0.14 19.06,5.62 26.45,12.65 8.46,5.85 15.07,14.53 18.77,24.25 5.25,9.36 8.94,19.97 7.87,30.25 -1.07,7.84 -3.98,14.98 -6.42,22.4 -0.97,4.35 -2.52,8.61 -4.37,12.72 -0.68,1.68 -1.26,3.35 -2.05,5 0,0.14 -0.09,0.32 -0.09,0.47 11.96,-2.29 24.5,-0.96 36.08,5.14 18.48,9.68 32,26.03 37.63,46.11 2.53,9.27 5.06,19.03 6.91,28.47 2.53,13.45 -4.87,24.36 -12.94,34.22 z m -157.73,77.41 c -12.36,8.18 -23.83,4.62 -35.3,-3.2 -25.87,-17.74 -42.99,-49.33 -59.91,-74.98 -8.75,-13.38 -17.9,-26.34 -28.79,-38.09 -2.52,-2.65 -4.96,-5.24 -7.58,-7.71 -2.62,-2.54 -3.31,-3.29 -4.38,-3.53 -1.46,5.5 -2.23,10.93 -2.43,16.32 0.2,13.66 4.38,27.93 9.82,41.4 6.62,14.1 15.95,27.49 25.19,39.92 8.75,11.7 19.35,26.23 18.48,41.62 4.47,9.18 6.22,18.54 -5.15,24.94 -10.22,5.81 -27.82,12.16 -39.49,7.88 -11.47,-4.27 -19.25,-20.09 -25.96,-29.56 -9.54,-13.43 -18.19,-27.41 -26.26,-41.83 -4.28,-7.81 -8.75,-15.58 -12.06,-23.71 -10.11,-14.53 -19.64,-29.49 -27.04,-45.95 -10.79,-23.88 -21.1,-53.07 -11.57,-79.09 9.14,-24.94 38.32,-40.63 63.02,-46.03 29.85,-6.55 53,7.03 75.66,25.27 23.54,18.92 37.14,44.9 51.25,70.96 8.46,15.6 16.82,31.23 25.29,46.88 7.87,14.87 17.4,29.76 23.92,45.33 5.05,12.17 5.44,25.13 -6.71,33.16 z m -277.45,-74.27 c -11.09,4.05 -23.83,4.94 -35.5,4.37 -3.31,-0.16 -6.81,-0.17 -10.41,-0.16 3.5,5.31 6.81,10.7 9.83,16.33 8.55,15.92 17.01,31.84 25.48,47.82 8.85,16.66 17.5,33.4 26.35,50.02 4.28,7.83 8.66,15.53 12.74,23.46 3.11,6.38 7.49,13.46 7.59,20.81 0,14.61 -14.3,33 -30.06,30.87 -7.09,-0.95 -10.5,-5.3 -13.41,-10.77 -6.62,-4.96 -13.13,-13.55 -16.15,-16.46 -15.37,-14.57 -27.22,-31.76 -38.8,-49.33 -24.02,-36.49 -44.15,-75.97 -62.05,-115.85 -7.78,-17.38 -10.01,-35.06 5.64,-48.77 14.2,-12.45 35.7,-17.1 53.2,-22.35 31.8,-9.47 88.01,-23.08 97.44,21.87 4.77,22.18 -11.96,40.86 -31.89,48.14 z m -82.47,202.52 c -0.49,1.68 -0.97,3.31 -1.56,4.87 -10.98,28.73 -44.93,41.67 -73.42,43.7 -64.38,4.59 -111.84,-53.56 -123.5,-111.72 -0.1,-0.74 -0.3,-1.51 -0.4,-2.26 -0.19,-0.62 -0.58,-1.22 -0.77,-1.85 -9.14,-23.82 -17.5,-51.09 -7.39,-75.99 9.23,-22.34 31.11,-40.22 51.05,-52.75 20.62,-12.96 46.29,-24.05 71,-17.24 20.52,5.69 39.38,23.06 35.1,46.08 -4.57,24.57 -27.81,30.27 -49.5,29.75 -11.57,-0.27 -27.91,-1.62 -32.67,11.69 -4.28,12.11 -0.78,27.31 2.91,39.11 4.09,13.04 10.7,25.12 18.48,36.28 7.88,11.14 18.38,24.88 33.07,26.14 25.38,2.16 48.04,-39.68 73.32,-18.47 14.1,11.79 13.42,29.84 4.28,42.66 z m -304.19,148.48 c -20.52,18.37 -57.77,21.43 -83.93,20.08 -30.15,-1.55 -58.54,-13.82 -78.97,-36.46 -20.81,-23.17 -30.04,-56.1 -38.8,-85.34 -8.17,-26.89 -18.67,-68.56 0.49,-92.98 6.12,-7.87 13.22,-15.44 21.59,-20.89 12.44,-9.95 28.59,-15.51 44.05,-18.94 26.36,-5.79 54.85,-9.76 79.65,3.38 24.41,13.03 33.55,42.21 39.58,67.48 3.21,13.26 6.9,29.39 6.61,43.14 -0.39,13.46 -10.79,23 -21.78,29.18 -22.08,12.42 -51.45,13.3 -74.69,3.44 -18.19,-7.71 -32.77,-42.1 -12.74,-55.79 9.24,-6.35 21.88,-5.6 32.58,-7.41 0.88,-0.14 1.75,-0.29 2.72,-0.42 0.1,-0.04 0.1,-0.04 0.1,-0.07 -0.39,-2.38 -0.97,-4.76 -1.56,-7.13 -1.84,-6.84 -3.5,-13.14 -11.27,-14.89 -10.61,-2.41 -25.88,1.15 -34.24,7.98 -12.93,10.77 -11.08,28.03 -7.98,42.77 5.16,23.57 12.75,63.17 42.02,65.3 14.2,1.03 28.2,-2.97 42.3,-3.76 14.78,-0.83 30.05,0.3 44.83,2.67 31.51,5.08 29.47,40.74 9.44,58.66 z m -353.12,137.61 c -15.75,0.66 -26.83,-12.7 -36.27,-23.34 -7.29,-8.21 -13.91,-16.81 -20.42,-25.6 -13.81,-15.7 -27.72,-31.34 -40.16,-48.41 -17.51,-23.86 -34.72,-49.36 -45.61,-76.99 -4.58,-11.56 -8.27,-25.22 -4.38,-37.51 3.6,-11.75 14.68,-19.24 26.84,-19.56 27.03,-0.72 45.42,29.25 60,48.04 17.8,23.17 34.04,47.55 48.43,73.01 6.81,12.21 13.33,24.56 20.52,36.64 7.78,13.18 15.85,28.99 16.63,44.56 0.68,15.22 -10.11,28.52 -25.58,29.16 z m -107.94,36.83 c -19.54,-2.22 -35.2,-15.96 -46.58,-31.17 -9.24,-12.11 -17.61,-24.85 -25.87,-37.64 2.33,12.12 4.08,24.37 6.32,36.59 3.4,18.51 15.17,43.43 -3.5,57.84 -10.4,8.05 -21,6.45 -29.08,0.02 -3.21,-0.33 -6.42,-1.68 -8.94,-3.99 -6.13,-5.44 -8.66,-14.67 -12.75,-21.49 -4.66,-7.7 -9.62,-15.13 -14.68,-22.62 -23.73,-36.14 -45.7,-73.24 -66.13,-111.47 -4.96,-9.4 -9.92,-18.86 -14.68,-28.36 -3.4,-6.63 -8.46,-14.27 -7.69,-22.07 1.56,-14.09 22.08,-20.07 33.85,-19.64 15.36,0.56 25.38,13.76 33.26,25.14 8.85,12.6 18.77,24.15 29.75,34.79 0.69,-7.13 -1.06,-16.01 -1.65,-21.14 -1.07,-10.54 -2.82,-20.99 -3.6,-31.55 -1.26,-15.43 -2.72,-37.6 12.74,-46.91 13.91,-8.46 30.15,0 39.1,11.52 12.16,15.5 21.78,33.46 32.38,49.96 21.4,33.17 42.79,66.58 59.81,102.26 4.28,8.85 8.27,17.81 12.64,26.62 3.79,7.87 8.66,17.01 9.34,25.91 1.36,18.85 -16.92,29.33 -34.04,27.4 z m 269.48,-105.31 c -19.65,-2.31 -35.21,-16.1 -46.58,-31.36 -9.15,-12.15 -17.41,-24.93 -25.59,-37.75 2.24,12.13 3.9,24.4 6.13,36.62 3.31,18.51 14.98,43.49 -3.79,57.81 -10.41,8.01 -21,6.36 -29.07,-0.1 -3.21,-0.33 -6.43,-1.69 -8.95,-4.02 -6.03,-5.47 -8.56,-14.71 -12.65,-21.55 -4.57,-7.71 -9.62,-15.17 -14.58,-22.68 -23.63,-36.23 -45.42,-73.43 -65.64,-111.74 -4.96,-9.42 -9.83,-18.9 -14.59,-28.42 -3.41,-6.64 -8.37,-14.31 -7.59,-22.11 1.55,-14.09 22.18,-19.98 33.94,-19.49 15.36,0.62 25.28,13.85 33.16,25.26 8.76,12.65 18.58,24.24 29.57,34.93 0.78,-7.11 -0.97,-16.01 -1.56,-21.15 -1.07,-10.53 -2.72,-20.99 -3.5,-31.57 -1.07,-15.43 -2.53,-37.59 12.93,-46.84 14.1,-8.39 30.15,0.12 39.1,11.68 12.06,15.55 21.59,33.55 32.19,50.1 21.3,33.25 42.49,66.75 59.42,102.5 4.18,8.87 8.07,17.84 12.35,26.68 3.89,7.88 8.75,17.05 9.33,25.95 1.17,18.85 -17.11,29.26 -34.03,27.25 z m -432.67,180.06 c -19.73,-2.32 -35.2,-16.11 -46.57,-31.38 -9.05,-12.13 -17.51,-24.91 -25.68,-37.75 2.24,12.14 3.99,24.41 6.13,36.64 3.3,18.5 14.97,43.5 -3.7,57.81 -10.5,8 -21.1,6.36 -29.07,-0.11 -3.21,-0.32 -6.43,-1.69 -9.05,-4.01 -5.93,-5.49 -8.56,-14.72 -12.64,-21.56 -4.57,-7.72 -9.53,-15.17 -14.39,-22.67 -23.73,-36.24 -45.52,-73.43 -65.74,-111.74 -5.06,-9.43 -9.83,-18.91 -14.69,-28.42 -3.31,-6.66 -8.36,-14.31 -7.58,-22.11 1.55,-14.08 22.27,-19.97 34.03,-19.5 15.27,0.62 25.19,13.86 33.17,25.28 8.75,12.65 18.57,24.23 29.46,34.91 0.88,-7.12 -0.97,-16.01 -1.46,-21.15 -1.07,-10.53 -2.82,-21 -3.5,-31.56 -1.17,-15.43 -2.63,-37.6 12.84,-46.85 14.1,-8.39 30.34,0.12 39.19,11.67 11.96,15.56 21.49,33.56 32.19,50.11 21.3,33.25 42.49,66.75 59.42,102.51 4.18,8.87 8.07,17.84 12.35,26.66 3.79,7.9 8.65,17.06 9.33,25.96 1.27,18.84 -17.11,29.25 -34.04,27.26 z m -140.81,47.42 c -3.79,5.59 -8.95,10.45 -14.88,13.39 -4.86,3.89 -10.79,6.24 -16.92,5.51 -12.74,-1.51 -23.34,-16.98 -30.44,-26.29 -9.43,-12.46 -18.96,-24.94 -28.98,-37.02 -10.21,-12.33 -20.81,-24.29 -32.38,-35.36 -5.74,-5.44 -24.02,-26.64 -33.07,-18.53 -9.33,8.43 8.07,33.1 12.94,40.88 7.39,12.1 16.14,23.76 22.46,36.44 1.94,3.86 3.5,7.77 4.76,11.71 3.02,3.95 5.84,7.93 8.56,12.04 3.99,6.27 8.85,13.19 11,20.39 7.78,25.96 -26.65,59.03 -50.67,39.96 -3.02,-2.37 -5.35,-5.4 -7.3,-8.64 -3.21,-2.29 -6.22,-5.04 -8.65,-8.19 -13.71,-17.68 -24.6,-38.43 -36.18,-57.57 -12.64,-20.97 -24.89,-42.18 -36.76,-63.61 -10.11,-18.26 -23.14,-39.07 -22.66,-60.79 0.68,-34.34 40.27,-60.09 72.06,-63.92 6.32,-1.93 12.06,-3.17 14.98,-3.58 4.18,-0.58 8.36,-0.34 12.45,0.41 3.69,-0.77 7.58,-1.17 11.37,-0.93 12.65,0.79 25.1,6.66 34.34,15.07 10.3,9.35 18.47,20.83 27.71,31.2 9.24,10.41 16.92,20.86 23.34,32.83 4.96,5.55 9.72,11.28 14,17.4 7.78,11.13 14.01,23.28 19.94,35.55 2.43,4.91 4.77,9.94 7.1,15.04 5.35,8.13 10.79,16.28 15.85,24.53 6.52,10.83 13.91,20.21 6.03,32.08 z m -190.8,60.25 c -2.63,28.57 -30.92,41.67 -53.68,53.08 -12.65,6.36 -25.78,12.08 -39.58,15.44 -6.52,1.61 -13.23,2.67 -19.94,3.21 -6.22,0.5 -14.49,1.53 -20.23,-1.83 -5.93,-3.58 -8.65,-12.33 -12.15,-17.98 -4.57,-7.21 -9.43,-14.21 -13.81,-21.53 -0.1,-0.12 -0.1,-0.25 -0.2,-0.38 -3.5,-4.09 -6.9,-8.23 -10.21,-12.51 -23.82,-31.23 -44.44,-64.96 -64.67,-98.62 -8.94,-13.38 -17.21,-27.24 -24.12,-41.91 -2.81,-4.86 -5.34,-9.92 -6.12,-15.31 -0.1,-0.27 0,-0.49 -0.1,-0.75 -0.87,-4.47 -0.29,-8.71 2.63,-11.89 4.18,-6.14 12.54,-9.14 21.1,-9.61 15.95,-0.86 33.26,6.09 45.41,16.2 6.52,5.4 11.87,12.14 17.12,18.71 2.72,3.47 7.58,11.21 12.84,15.99 -3.5,-23.38 -2.53,-47.81 2.04,-70.79 3.89,-19.23 26.16,-34.61 45.51,-25.94 23.05,10.32 19.55,38.08 20.52,58.64 0.49,13.2 3.5,27.23 7.2,39.98 1.16,4.16 2.14,8.27 3.11,12.37 8.07,-2.05 17.7,-1.8 24.21,-1.07 13.04,1.45 24.61,7.54 32.68,17.98 9.04,11.55 15.46,25.38 21.2,38.75 5.45,12.5 10.5,25.92 9.24,39.77 z m -401.44,-203.9 -11.19,438.61 C 2599.44,5121.06 2160.11,4943.97 1737.59,4772.93 1459.86,4660.5 1218.8,4581.46 949.797,4463.96 c -20.199,-8.82 -22.586,-1.95 -53.348,-19.86 -30.769,-17.91 -58.023,-28.43 -81.39,-35.05 -23.364,-6.62 -43.227,-12.46 -43.227,-12.46 0,0 -80.016,-33.4 -103.578,-42.63 -23.566,-9.22 -73.086,-27.12 -73.086,-27.12 l 336.238,-99.89 -138.758,-275.01 c 0,0 97.688,47.5 133.536,62.28 35.847,14.79 56.007,21.06 93.196,34.06 252.82,88.35 585.55,236.18 843.05,339.55 391.34,157.12 819.14,355.29 1102.91,460.34"
       style="fill:#7b4cc7;fill-opacity:1;fill-rule:evenodd;stroke:none"
       transform="matrix(0.13333333,0,0,-0.13333333,0,800)" />
    <path
       id="path3"
       d="m 1362.96,4331.76 c -7.58,50.26 -20.25,101.18 -41.92,147.36 -4.54,9.59 -9.71,20.38 -16.85,28.97 0,0.35 0.19,0.62 0.19,1 0.08,5.01 -2.69,10.2 -6.25,13.57 -7.4,7.13 -18.99,7.33 -27.99,3.45 -10.17,-4.4 -15.43,-13.83 -19.08,-23.8 -2.77,-7.52 -3.04,-15.44 -1.71,-23.39 -0.35,-0.8 -0.62,-1.62 -0.97,-2.4 -3.66,-9.28 -6.6,-18.72 -8.65,-28.49 -1.25,-6.12 -2.77,-11.89 -4.73,-17.6 -0.54,-1.51 -1.16,-2.97 -1.87,-4.34 -7.67,3.34 -12.84,8.7 -18.63,14.64 -5.62,14.13 -16.95,27.72 -30.5,33.77 -3.65,3.94 -7.67,7.33 -12.48,8.33 -15.52,3.19 -24.34,-15.01 -26.31,-27.58 -2.76,-17.68 1.61,-35.91 4.02,-53.39 3.03,-22.63 6.24,-45.5 10.61,-68.09 1.43,-17.59 3.21,-35.15 5.97,-52.54 1.96,-11.89 4.99,-23.63 8.83,-35.05 2.94,-8.74 6.15,-18.9 14.63,-23.79 17.56,-10.01 35.84,2.58 41.54,19.57 4.29,12.99 1.87,24.99 -1.24,37.91 -3.3,13.79 -5.54,27.63 -7.32,41.68 -1.07,8.63 -1.96,17.25 -2.49,25.93 -0.19,3.6 0.35,8.39 0.35,12.78 1.43,-1.63 2.76,-3.2 3.48,-4.22 4.63,-6.78 9.27,-13.57 13.91,-20.36 2.32,-3.38 5.62,-5.11 9.09,-5.64 0.45,-0.25 0.98,-0.31 1.52,-0.49 1.16,-1.33 2.59,-2.52 4.19,-3.34 5.52,-2.97 13.11,-1.43 17.22,3.49 1.32,1.69 1.77,3.59 2.4,5.39 0.71,1.98 1.96,3.77 2.58,5.81 1.43,4.65 1.43,9.69 1.7,14.5 0.44,9.02 1.87,17.84 3.39,26.74 0,0.06 0,0.14 0,0.21 0.71,2.08 1.69,4.52 2.04,6.54 0,0.09 0,0.14 0.1,0.22 0.17,0.03 0.26,0.03 0.45,0.05 4.18,-1.53 8.55,0.39 12.11,-3.51 2.59,-2.83 2.95,-8.91 3.67,-12.48 2.14,-11.13 3.56,-22.39 5.35,-33.58 2.85,-18.04 4.45,-46.01 19.51,-58.57 15.7,-13.1 33.8,1.01 35.76,18.32 0.71,5.76 0.09,11.66 -0.7,17.52 3.74,2.99 6.05,8.02 5.08,14.9 z m 1203.66,640.89 c 8.17,1.53 16.04,5.79 24.11,7.07 19.16,2.94 30.73,-16.14 26.55,-33.59 -2.33,-10.53 -15.75,-17.02 -23.82,-23.01 -2.04,-1.52 -10.51,-9.34 -12.64,-9.24 -0.3,0.02 -3.21,12.02 -3.7,13.64 -2.92,11.14 -6.03,22.24 -9.05,33.33 -1.16,4.31 -2.42,8.03 -1.45,11.8 z m 126.03,-122.24 c -14.69,19.71 -30.63,37.84 -48.52,54.62 7,4.3 15.45,8.87 20.12,15.33 5.55,7.66 7.3,18.46 8.86,27.62 1.75,10.61 2.03,20.86 -0.4,31.41 -2.33,9.85 -5.35,19.71 -8.85,29.2 -3.5,9.22 -7.39,19.43 -13.71,27.11 -13.52,16.23 -39.77,9.18 -56.69,3.37 -15.66,-5.34 -31.51,-12.58 -46.29,-20.92 -8.95,-1.89 -17.21,-4.45 -25.68,-8.14 -5.05,-2.18 -10.5,-4.4 -12.54,-9.97 -2.92,-7.96 2.04,-19.42 3.5,-27.23 1.94,-9.82 3.99,-19.62 6.12,-29.42 9.14,-42.6 18.38,-85.41 24.61,-128.56 1.66,-11.39 2.82,-22.81 3.89,-34.27 0.58,-6.6 0.78,-13.83 4.86,-19.4 8.85,-12.12 27.33,-4.05 36.95,3.13 13.33,9.97 14.89,26.31 12.55,41.58 -2.72,18.56 -4.96,36.2 -3.89,54.49 14.98,-15.36 27.33,-33.88 42.01,-49.34 14.3,-15.23 34.43,-24.93 53.98,-13.09 22.46,13.56 11.37,36.03 -0.88,52.48 z m -175.05,-79.65 c -3.3,20.04 -15.65,44.25 -39.19,34.38 -17.02,-7.14 -33.84,-15.69 -49.89,-25.33 -5.64,13.79 -10.21,27.97 -13.9,42.43 2.14,1.42 4.37,2.78 6.51,4.17 5.64,3.55 11.67,6.39 17.8,8.98 6.81,2.95 13.91,5.66 20.71,8.79 3.11,1.41 6.13,2.92 9.05,4.61 3.11,1.79 6.32,2.97 8.65,5.87 2.62,3.27 4.57,6.81 4.28,11.1 -0.39,3.83 -1.85,7.75 -3.99,10.95 -4.18,6.4 -10.01,11.31 -17.02,14.3 -7.87,3.33 -15.75,2.53 -23.04,-1.78 -6.32,-3.75 -12.55,-7.99 -18.68,-12.13 -4.37,-2.94 -8.46,-6.17 -12.54,-9.32 -1.07,9.71 -1.65,19.49 -1.94,29.19 -0.2,4.58 -0.59,7.85 2.23,11.34 3.21,3.82 10.02,5.2 14.59,7.05 7.29,2.99 14.68,5.76 21.88,9 11.18,5.08 19.94,10.12 18.87,23.71 -0.88,11.13 -4.87,23.64 -15.85,28.4 -11.77,5.07 -23.54,-1.12 -33.46,-7.13 -7.1,-4.34 -14.2,-8.77 -21.39,-13.14 -2.63,-1.64 -5.45,-3.25 -8.27,-4.93 -7,-3.46 -13.91,-6.95 -21.01,-10.38 -8.75,-4.32 -21.49,-8.26 -28.97,-14.8 -6.03,-5.36 -3.6,-12.16 -2.34,-19.21 9.05,-49.83 23.44,-98.46 31.71,-148.42 1.94,-11.64 4.08,-23.23 6.51,-34.79 1.95,-9.58 4.38,-22.29 12.54,-28.75 14.89,-11.64 37.25,2.69 50.87,9.82 19.54,10.23 37.92,22.72 58.15,31.51 7.49,3.23 17.21,4.9 22.76,11.16 5.83,6.47 5.73,15.28 4.37,23.35 z m -171.16,-66.67 c -1.94,8.8 -4.85,21.37 -13.61,25.8 -9.04,4.5 -18.96,-1.84 -26.84,-5.95 -16.82,-8.62 -32.78,-19.87 -51.25,-23.61 0,0.35 0,0.71 0,1.06 -0.1,5.15 -1.36,10.25 -2.43,15.25 -2.43,10.72 -5.35,21.31 -7.58,32.05 -4.38,20.7 -7.88,41.48 -12.75,62.04 -4.76,19.61 -9.34,39.81 -16.72,58.62 -1.85,4.8 -4.38,8.43 -7.3,11 -0.29,1.42 -1.16,2.78 -2.62,3.45 -13.91,6.65 -39.78,6.37 -42.11,-13.66 -0.97,-8.86 2.33,-19.26 3.79,-27.95 2.04,-11.95 4.28,-23.87 6.81,-35.75 9.53,-46.8 19.06,-93.67 30.34,-140.07 3.11,-12.91 5.84,-41.5 23.34,-43.08 7.39,-0.67 15.66,3.53 22.27,6.42 9.82,4.29 19.16,9.56 28.59,14.63 8.36,4.48 16.73,8.9 25.58,12.35 8.65,3.39 18.09,4.13 26.64,7.6 15.85,6.45 19.45,24.41 15.85,39.8 z m -165.51,-58.9 c -2.53,8.67 -6.23,21.02 -15.27,24.85 -9.24,3.9 -18.77,-3.09 -26.45,-7.7 -16.05,-9.74 -31.31,-22.01 -49.6,-26.98 0,0.35 0,0.7 0,1.05 -0.39,5.13 -2.04,10.14 -3.4,15.07 -3.11,10.54 -6.81,20.89 -9.73,31.47 -5.64,20.35 -10.6,40.87 -16.92,61.05 -5.93,19.26 -11.86,39.12 -20.42,57.39 -2.24,4.66 -4.96,8.12 -8.07,10.49 -0.39,1.39 -1.36,2.69 -2.73,3.27 -14.39,5.71 -40.25,3.71 -41.23,-16.43 -0.48,-8.92 3.7,-19.06 5.74,-27.63 2.72,-11.8 5.83,-23.54 9.04,-35.23 12.55,-46.05 25.29,-92.2 39.59,-137.75 3.98,-12.66 8.55,-41.02 26.15,-41.43 7.4,-0.18 15.47,4.57 21.89,7.89 9.52,4.93 18.38,10.81 27.52,16.49 7.97,5.03 16.04,10.01 24.6,14.02 8.46,3.97 17.8,5.33 26.16,9.37 15.36,7.47 17.7,25.63 13.13,40.74 z m -175.34,-51.67 c -2.43,4.59 -5.74,8.31 -10.02,10.16 -0.1,1.74 -0.87,3.39 -2.82,4.3 -16.05,7.4 -34.42,-5.19 -47.94,-13.41 -3.79,-2.27 -7.49,-4.73 -11.28,-6.82 -1.94,-1.04 -3.89,-1.81 -5.93,-2.8 -0.1,-0.02 -0.1,-0.05 -0.2,-0.06 0,0.32 -0.2,0.7 -0.78,1.21 0,2.78 -4.47,9.28 -5.35,12.26 -1.36,4.6 -2.43,9.3 -3.59,14 -1.27,5.36 -3.8,11.03 0.19,15.82 3.01,3.53 9.53,6.56 13.42,8.96 8.17,5.04 16.83,8.93 25.28,13.41 13.82,7.27 16.93,21.17 7.2,33.77 -11.18,14.38 -28.2,5.58 -41.62,-0.27 -3.5,-1.57 -11.57,-6.84 -15.56,-6.09 -3.4,0.63 -2.82,1.45 -3.89,5.01 -0.68,2.34 -1.27,4.68 -1.75,7.05 -0.68,3.87 -2.63,12.12 -0.78,16.04 1.95,4.08 10.21,6.58 14.39,8.62 9.73,4.68 19.45,9.01 29.08,13.86 6.52,3.28 13.03,7.51 15.75,14.69 4.29,11.28 -0.29,30.19 -11.47,36.22 -15.65,8.52 -37.34,-4.96 -51.05,-12.08 -16.83,-8.76 -33.66,-17.6 -50.67,-26.3 -1.65,-0.59 -3.41,-1.21 -5.06,-1.8 -4.76,-1.7 -12.06,-2.72 -15.75,-6.59 -3.99,-4.17 -2.53,-10.3 -1.17,-15.27 1.07,-4 2.63,-7.82 4.47,-11.54 1.56,-13.49 5.06,-27.11 7.69,-39.85 4.28,-21.07 9.53,-41.93 14.19,-62.91 4.77,-20.65 8.85,-41.38 12.16,-62.31 2.14,-13.77 5.06,-27.25 14,-37.91 0.1,-0.26 0,-0.51 0.1,-0.8 2.82,-7.39 9.83,-8.46 16.92,-6.68 8.56,2.18 16.92,6.25 25.09,9.77 18.87,8.16 36.67,20.02 54.66,30.25 8.36,4.76 16.82,9.4 24.99,14.44 7.1,4.34 13.9,9.29 14.88,18.17 1.07,8.93 -3.89,17.77 -7.78,25.48 z M 1849.7,4480.91 c -2.82,8.24 -11.38,13.39 -17.6,18.93 -7.69,6.85 -15.17,13.97 -22.56,21.2 -7.3,7.23 -14.4,14.76 -20.91,22.73 -8.86,10.86 -12.45,20.33 -9.34,34.34 4.67,21.21 12.54,41.19 15.27,62.93 2.24,19.58 2.62,44.69 -7.78,62.33 -10.51,17.8 -29.37,8.17 -38.9,-4.34 -11.59,-15.05 -16.49,-32.18 -20.68,-50.4 -3.22,-14.17 -5.99,-29.46 -12.75,-42.55 -3.84,8.08 -5.9,17.62 -8.75,25.28 -5.52,14.85 -11.59,29.43 -18.18,43.84 -2.59,5.82 -11.59,7.17 -16.41,3.36 -11.59,-3.6 -21.75,-9.84 -26.13,-22.28 -5.71,-16.64 1.52,-34.34 6.87,-50.05 14.18,-41.81 27.63,-83.91 40.21,-126.25 3.12,-10.42 6.07,-20.86 9.1,-31.31 1.96,-6.91 3.65,-14.44 9.01,-19.63 9.54,-9.26 24.6,-6.37 32.65,3.28 10.7,12.81 6.71,30.36 1.66,44.58 -3.2,9.22 -5.88,18.35 -7.66,28 -0.71,4.2 -4.28,16.42 -3.65,23.48 19.38,-8 31.34,-25.91 43.79,-42.23 10.21,-13.47 21.97,-29.1 40.65,-28.38 13.81,0.53 39.28,2.09 32.09,23.14 z m -177.88,-70.88 c -2.85,8.23 -11.41,13.39 -17.65,18.91 -7.67,6.86 -15.16,13.98 -22.47,21.21 -7.31,7.23 -14.45,14.76 -20.96,22.74 -8.82,10.85 -12.47,20.32 -9.35,34.34 4.72,21.2 12.56,41.19 15.24,62.93 2.32,19.57 2.67,44.69 -7.75,62.32 -10.53,17.81 -29.35,8.17 -38.89,-4.34 -11.49,-15.05 -16.49,-32.18 -20.6,-50.4 -3.29,-14.16 -6.05,-29.45 -12.83,-42.54 -3.83,8.07 -5.88,17.61 -8.74,25.27 -5.53,14.85 -11.59,29.43 -18.11,43.85 -2.67,5.82 -11.67,7.17 -16.49,3.34 -11.59,-3.58 -21.75,-9.83 -26.03,-22.27 -5.8,-16.64 1.42,-34.33 6.77,-50.05 14.18,-41.8 27.65,-83.91 40.22,-126.25 3.12,-10.42 6.06,-20.86 9.09,-31.31 1.97,-6.9 3.66,-14.43 9.01,-19.64 9.54,-9.25 24.6,-6.36 32.72,3.29 10.61,12.81 6.7,30.37 1.61,44.59 -3.21,9.22 -5.88,18.35 -7.67,28 -0.71,4.2 -4.28,16.41 -3.65,23.46 19.34,-7.99 31.29,-25.89 43.78,-42.21 10.25,-13.49 22.02,-29.1 40.74,-28.39 13.73,0.54 39.24,2.09 32.01,23.15 z m -209.27,-46.13 c -1.07,10.84 -2.94,21.57 -5.09,32.27 -1.95,14.28 -5.25,28.4 -8.19,41.55 -0.09,0.5 -0.27,0.98 -0.36,1.47 -4.28,21.54 -8.38,43.11 -11.77,64.83 -2.14,14.12 -4.1,28.36 -7.85,42.15 -2.85,10.19 -7.4,22.14 -18.54,25.62 -7.94,2.46 -14,0.33 -18.55,-4.23 -19.8,-8.31 -21.84,-35.83 -20.25,-54.85 2.69,-30.81 11.87,-61.86 19.54,-91.73 3.83,-14.8 8.65,-29.25 12.84,-43.92 3.92,-13.78 6.51,-28.62 12.13,-41.85 7.13,-17 33.34,-30.41 43.5,-7.93 5,11.02 3.75,24.9 2.59,36.62"
       style="fill:#7b4cc7;fill-opacity:1;fill-rule:nonzero;stroke:none"
       transform="matrix(0.13333333,0,0,-0.13333333,0,800)" />
    <path
       id="path4"
       d="m 3635.28,1079.92 c -2.14,11.07 -6.32,25.03 -17.5,29.88 -11.77,5.14 -24.41,-1.6 -35.4,-5.96 -11.58,-4.55 -22.76,-8.98 -33.36,-15.05 -2.23,11.24 -4.18,22.55 -5.44,33.98 -0.49,4.26 -3.21,6.93 -6.52,8.07 1.17,2.78 9.63,6.43 12.35,8 4.28,2.48 8.46,5.06 12.84,7.23 7.97,3.92 18.57,3.23 22.85,12.45 7.29,15.97 -3.98,38.91 -23.63,33.6 -8.36,-2.28 -17.02,-7.71 -24.41,-12.08 -4.57,-2.74 -9.14,-5.66 -13.52,-8.57 -1.07,-0.66 -2.14,-1.32 -3.11,-1.99 -0.19,2.84 -0.29,5.64 -0.48,7.6 -0.59,6.39 -1.07,12.81 -1.17,19.22 -0.1,4.14 -0.68,12.86 0.58,14.98 2.24,3.75 13.13,7.6 17.12,9.84 5.64,3.28 11.28,6.57 17.02,9.85 4.47,2.6 9.92,4.39 14.2,7.29 9.23,6.14 6.8,18.06 2.82,26.63 -4.38,9.33 -12.36,18.88 -23.73,16.02 -3.31,-0.83 -6.62,-2.56 -9.73,-4.3 -18.28,-4.11 -35.59,-10.32 -52.03,-19.58 -10.4,-5.77 -20.32,-11.96 -30.14,-18.58 -7.2,-4.88 -17.02,-9.61 -17.51,-19.32 -0.58,-9.97 4.76,-21.03 6.61,-30.83 2.44,-13.08 4.47,-26.19 6.62,-39.31 4.09,-24.7 9.91,-49.32 16.23,-73.53 6.13,-23.46 12.46,-48.44 22.57,-70.51 9.72,-20.958 29.08,-14.063 45.51,-5.884 22.08,11.044 44.35,21.954 65.74,34.344 9.14,5.32 20.72,10.24 28.5,17.49 8.46,7.82 8.26,18.47 6.12,29.02 z m 1043.38,626.46 c 1.46,3.07 3.51,6.99 4.96,7.7 4.48,2.26 11.29,2.46 16.24,3.5 1.37,0.29 2.82,0.49 4.19,0.88 0.19,0.06 0.29,0.07 0.48,0.12 0.1,-0.1 2.92,-2.28 2.82,-2.24 3.89,-3.11 8.07,-6.09 11.86,-9.41 2.92,-2.64 3.5,-6.18 4.77,-11.56 2.23,-9.5 2.23,-19.17 -1.55,-27.83 -3.02,-6.94 -8.66,-6.68 -16.25,-4.35 -7.29,2.26 -14.19,7.59 -18.86,13.84 -5.06,6.49 -8.17,14.67 -8.75,22.83 -0.2,2.37 -0.2,4.52 0.09,6.52 z m 54.75,-86.7 c 0.2,0.09 0.78,0.34 1.36,0.63 4.19,-1.22 9.54,-1.35 13.62,-2.2 0.78,-0.18 1.75,-0.56 2.14,-0.63 1.17,-1.1 1.85,-2.45 3.31,-4.13 3.21,-3.91 5.64,-5.09 6.61,-9.88 1.17,-5.79 1.55,-11.58 2.43,-17.4 0.78,-4.11 1.17,-7.37 0.39,-11.36 -3.11,-14.06 -19.26,-31.16 -34.72,-24.44 -16.92,7.36 -25.77,27.88 -21.59,45.43 1.46,5.76 3.99,11.09 7.2,15.86 4.28,1.58 8.46,3.14 12.45,5.01 2.33,1.04 4.57,2.08 6.8,3.11 z m 77.51,-9.76 c -3.79,15.06 -10.51,30.66 -21,42.3 -7.49,8.25 -16.93,12.91 -27.14,14.6 5.74,20.68 2.53,44.42 -6.8,63.11 -14.4,28.39 -55.44,33.58 -81.11,18.15 -1.46,-0.93 -2.92,-1.94 -4.28,-3 -2.43,-0.87 -4.76,-1.9 -7,-3.36 -12.35,-7.89 -22.85,-22.29 -27.52,-36.08 -4.87,-14.4 -1.46,-30.98 3.31,-44.95 4.76,-14.01 12.73,-26.2 24.79,-35 4.09,-2.99 8.66,-5.42 13.42,-7.23 -8.07,-11.05 -12.15,-25.31 -11.38,-38.88 1.75,-28.31 14.3,-64.85 41.04,-78.86 14.2,-7.44 31.32,-7.36 46.2,-1.86 14.29,5.24 29.17,14.15 40.35,24.34 22.76,20.5 24.41,59.12 17.12,86.72 z m -153.07,-109.07 c -4.57,16.39 -10.31,32.4 -16.14,48.4 0.19,1.93 0.19,3.87 -0.1,5.82 -1.85,11.34 -6.51,22.5 -10.11,33.36 -7.49,22.25 -15.56,44.24 -25.48,65.51 -4.86,10.35 -10.21,20.49 -16.24,30.2 -5.35,8.66 -11.67,15.52 -22.66,15.1 -10.5,-0.39 -21.1,-6.2 -29.27,-12.35 -4.48,-3.35 -9.05,-6.64 -13.32,-10.23 -2.44,-2.15 -4.19,-4.61 -5.74,-7.19 -1.85,-0.13 -3.99,-1.77 -3.99,-3.84 -0.68,-12.44 -2.34,-32.7 10.5,-40.09 5.93,-3.42 13.13,-2.61 19.45,-0.7 3.41,1.09 6.91,2.67 10.31,4.07 1.26,0.5 3.11,1 4.38,1.7 0.38,-3.55 3.01,-8.61 3.89,-11.36 1.36,-4.4 2.72,-8.79 3.88,-13.25 2.44,-9.53 5.35,-18.96 8.37,-28.33 6.03,-18.75 12.45,-37.42 19.06,-55.98 6.32,-17.88 13.23,-35.65 20.62,-53.15 5.74,-13.41 19.84,-23.97 34.13,-14.89 17.41,11.1 13.23,30.34 8.46,47.2 z m -172.03,-56.8 c -5.44,-10.8 -16.73,-22.1 -29.86,-20.5 -14.19,1.74 -25.38,15.94 -32.28,27.41 -16.34,27.43 -23.54,64.58 -24.7,96.2 -0.3,6.59 0,13.61 0.87,20.57 4.47,8.17 10.11,15.59 18.19,21.34 0.19,0.15 0.39,0.25 0.58,0.4 0.68,-0.14 2.53,0.82 3.99,1.18 4.66,1.05 9.33,1.94 13.9,2.9 3.21,0.66 9.24,0.73 11.87,2.49 0.1,0.01 0.19,0.03 0.29,0.05 0.1,-0.06 0.1,-0.1 0.19,-0.16 1.07,-2.02 4.77,-4.1 6.52,-5.6 6.12,-5.28 12.64,-10.1 16.24,-17.57 3.99,-8.44 6.61,-17.89 9.04,-26.83 8.66,-29.94 20.23,-72.22 5.16,-101.88 z m 43.57,90.87 c -5.55,22.38 -11.96,44.6 -21.98,65.49 -9.34,19.67 -23.73,42.05 -44.45,50.98 -24.31,10.49 -47.94,-4.11 -65.64,-20.34 -5.64,-5.1 -10.11,-10.94 -13.71,-17.21 -17.12,-14.1 -24.22,-34.97 -25.77,-56.78 -1.85,-25.66 1.85,-52.65 6.03,-77.93 3.79,-22.73 10.79,-43.75 24.51,-62.45 14,-18.99 31.6,-39.95 57.37,-37.63 22.37,2.01 46.49,9.51 65.55,21.57 22.07,13.99 30.83,32.97 30.54,58.87 -0.2,25.48 -6.33,50.84 -12.45,75.43 z m -150.06,-152.07 c -1.46,5.34 -6.51,11.54 -12.35,12.36 -23.34,3.22 -44.05,-8.2 -64.18,-18.72 2.82,14.95 5.54,29.81 6.32,45.05 0.77,14.69 0.39,29.52 -3.12,43.89 -0.09,0.17 -0.09,0.39 -0.19,0.58 -0.1,34.99 -9.24,76.1 -45.02,89.7 -17.02,6.46 -37.74,4.75 -53.79,-3.6 -17.4,-8.98 -28.97,-26.36 -40.06,-41.78 -9.33,-12.81 -14.49,-39.54 8.08,-42.58 9.43,-1.29 16.62,4.59 22.55,10.98 3.31,3.57 6.62,6.96 9.92,10.36 2.33,1.37 4.77,2.55 7.3,3.46 8.75,3.04 19.45,4.07 28.01,-0.04 19.74,-9.5 8.94,-41.53 4.18,-57.17 -6.23,-20.8 -14.5,-40.78 -17.6,-62.41 -1.66,-11.07 -2.83,-23.36 0.09,-34.35 0.19,-1.24 0.68,-2.62 1.17,-4.03 0.78,-8.95 4.18,-17.72 10.31,-25.35 13.91,-17.29 32.48,-9.3 49.11,-1.11 19.25,9.47 37.24,21.25 56.69,30.38 18.87,8.82 39.39,19.48 32.58,44.38 z m -315.57,-141.67 c -1.65,4.72 -3.7,7.8 -7,11.6 -2.14,2.46 -4.77,4.38 -7.39,6.32 -2.92,2.24 -5.45,3.76 -9.14,5.04 -2.14,0.77 -4.28,1.24 -6.52,1.57 -2.24,1.16 -4.76,2 -7.39,2 -15.56,0.08 -25.28,-15.06 -25.38,-29.28 -0.1,-10.82 5.35,-21.3 12.06,-29.41 4.66,-5.56 11.57,-8.78 18.86,-9.02 7.78,-0.24 14.49,3.94 20.23,8.83 1.26,1.09 2.43,2.28 3.5,3.56 1.95,2.39 3.99,4.88 5.54,7.59 3.6,6.34 5.16,14.15 2.63,21.2 z m -131.19,177.34 c -11.09,13.42 -29.86,9.81 -44.15,4 -18.28,-7.48 -35.11,-20.86 -51.35,-32.04 -8.46,-5.83 -16.82,-11.73 -25.28,-17.61 -2.24,-1.22 -4.58,-2.38 -6.71,-3.64 -12.06,-6.8 -31.12,-20.3 -21.4,-36.37 9.82,-16.08 31.71,-10.04 45.52,-4.24 8.75,3.66 17.21,7.72 25.57,12.06 0.69,-14.1 2.82,-28.38 4.28,-42.22 3.79,-36.35 8.36,-73.18 15.85,-108.99 2.73,-12.78 4.38,-32.21 19.06,-37.02 13.91,-4.53 25.19,7.81 28.59,19.85 4.87,17.46 -0.87,32.76 -3.21,50 -2.52,17.78 -3.4,35.81 -5.24,53.66 -2.24,20.5 -7.21,40.76 -12.16,60.72 -2.43,9.55 -4.48,19.16 -6.81,28.71 7,5.02 13.81,10.3 20.52,15.9 10.31,8.6 29.17,22.41 16.92,37.23 z m -159.39,-183.79 c -12.84,7.78 -27.52,10.36 -42.3,11.74 -6.23,2.17 -14.98,4.84 -18.58,9.51 -7.58,9.75 0.88,29.22 5.16,38.79 0.39,0.82 0.87,1.57 1.26,2.35 2.73,1.68 5.54,3.25 8.46,4.63 15.56,7.66 37.15,8.45 42.99,27.94 4.17,14.31 -8.37,22.01 -19.46,20.99 -24.41,8.73 -53.77,-7.92 -71.47,-23.64 -21.49,-18.99 -38.12,-46.02 -39.78,-75.15 -1.94,-34.07 23.93,-52.05 54.75,-55.99 7.59,-0.96 15.08,-1.56 22.57,-2.91 5.15,-0.9 15.85,-1.28 17.79,-5.88 4.48,-10.38 -11.96,-26.64 -18.47,-32.64 -12.55,-11.67 -28.01,-19.86 -41.92,-29.78 -13.32,-9.5 -25.87,-21.46 -20.52,-39.35 11.96,-39.75 59.91,-16.74 81.5,-0.81 12.64,9.38 25.28,18.73 38.41,27.46 12.25,8.11 24.8,17.45 31.12,31.18 13.81,30.33 -3.7,74.71 -31.51,91.56"
       style="fill:#7b4cc7;fill-opacity:1;fill-rule:nonzero;stroke:none"
       transform="matrix(0.13333333,0,0,-0.13333333,0,800)" />
    <path
       id="path5"
       d="m 3935.36,4099.38 c 0,0 32.25,-15.25 69.7,2.43 37.44,17.68 88.76,18.73 118.58,-3.12 29.81,-21.84 85.64,-25.31 96.73,-15.6 11.1,9.71 54.27,72.7 132.23,63.07 77.96,-9.63 95.88,-81.91 80.59,-130.43 -15.3,-48.52 -81.62,-145.98 -199.24,-150.19 0,0 -1.65,-61.96 61.65,-110.12 63.29,-48.16 51.23,-92.07 41.73,-123.2 -9.49,-31.12 -45.89,-56.44 -152.45,-11.08 0,0 -34.34,-73.57 -57.08,-94.71 0,0 244.55,-62 264.32,-68.59 19.78,-6.6 27.07,5.2 31.92,15.26 4.86,10.06 37.85,86.26 57.8,122.18 19.95,35.91 27.54,71.03 27.54,71.03 0,0 -48.96,40.61 -56.24,90.93 -7.3,50.32 1.41,77.3 31.95,89.45 0,0 -3.41,56.6 -1,90.11 2.41,33.5 42.08,41.02 56.23,27.33 14.15,-13.7 20.32,-14.61 30.14,-6.85 9.81,7.76 19.28,15.91 39.73,10.95 20.45,-4.96 24.63,-18.35 27.04,-23.16 2.4,-4.8 6.9,-4.8 11.56,-0.3 4.65,4.51 32.85,9.1 45.32,-3.36 12.46,-12.47 10.66,-25.54 13.81,-28.69 3.16,-3.16 18.84,0.1 24.6,0.1 5.77,0 26.28,-8.71 25.87,-42.28 -0.4,-33.57 -15.51,-171.18 -33.59,-207.01 -18.09,-35.82 -47.3,-50.43 -47.3,-50.43 0,0 -50.13,-263.69 -88.22,-336.17 -38.09,-72.48 -71.61,-105.09 -205.48,-85.51 -133.87,19.58 -303.78,65.92 -303.78,65.92 0,0 -21.11,-66.2 -53.91,-155.04 -32.82,-88.84 -41.62,-96.03 -41.62,-96.03 0,0 -32.98,10.19 -64.3,11.24 -31.31,1.05 -38.95,-6.58 -27.9,-11.31 11.06,-4.74 118.04,-25.75 202.96,-47.68 84.94,-21.93 359.3,-94.75 403.77,-143.46 44.48,-48.7 42.58,-109.39 44.41,-169.67 1.82,-60.29 28.61,-396.62 28.61,-396.62 0,0 61.17,-67.42 126.1,-63.28 64.93,4.14 79.41,18.23 139.9,41.46 60.48,23.23 131.78,-12.82 133.37,-74.11 1.61,-61.28 -44.21,-90.74 -123.44,-128.05 -79.23,-37.31 -159.43,-46.01 -258.5,-34.36 l 18.94,-47.32 c 0,0 -86.83,-61.02 -180.91,-78.78 0,0 -54.43,42.2 -81.46,136 -27.02,93.79 -6.88,163.76 -6.88,163.76 0,0 -47.79,213.46 -63.46,292.27 -15.67,78.82 -24.43,118 -24.43,118 0,0 -111.83,-9.13 -246.04,0.28 -134.2,9.41 -177.78,31.02 -187.88,31.37 -10.11,0.35 -17.43,-16.04 -7.67,-24.75 9.76,-8.71 85.75,-21.61 85.75,-21.61 0,0 -15.72,-205.53 -89.91,-342.63 -74.19,-137.09 -147.27,-135.83 -287.59,-84.22 -140.32,51.61 -363.8,185.87 -378.64,188 -14.85,2.12 -96.11,17.93 -137.61,-44.79 -41.5,-62.72 -28.94,-110.77 -56.14,-144.95 -27.2,-34.18 -110.26,-23.78 -137.94,11.92 -27.67,35.7 5.12,117.34 45.26,193.92 40.14,76.58 108.41,120.4 108.41,120.4 l -49.82,34.15 51.17,131.59 c 0,0 61.83,21.21 147.18,-16.15 85.35,-37.37 98.73,-62.29 98.73,-62.29 0,0 63.01,-21.19 164.06,-63.64 101.06,-42.44 164.73,-59.05 164.73,-59.05 0,0 -44.5,160.48 -67.69,261.65 -23.21,101.17 -47.32,171.57 -27.79,258.85 19.54,87.28 64.09,130.34 64.09,130.34 0,0 21.73,84.14 56.62,172.28 34.89,88.13 75.28,154.68 75.28,154.68 0,0 -87.34,51.61 -160.79,96.72 -73.45,45.11 -77.04,49.1 -77.04,49.1 0,0 -70.26,-76.24 -87.43,-105.39 -17.16,-29.14 -17.56,-29.53 -17.56,-29.53 0,0 57.65,-27.45 50.46,-77.76 -7.19,-50.3 -40.73,-48.71 -40.73,-48.71 0,0 1.46,-82.6 -1.96,-111.48 -3.42,-28.89 -39.65,-33.35 -52.77,-32.82 -13.13,0.52 -22.85,4.46 -22.85,4.46 0,0 -12.25,-22.98 -45.61,-28.34 -33.36,-5.36 -43.1,8.74 -43.1,8.74 0,0 -13.3,-14.7 -42.5,-9.93 -29.18,4.77 -28.99,18.27 -28.99,18.27 0,0 -44.58,-4.2 -56.06,44.44 -11.48,48.63 5.77,116.6 36.1,168.53 30.32,51.93 39.98,65.26 39.98,65.26 0,0 23.05,93.11 63.21,184.53 40.17,91.43 98.04,187.3 156.78,203.63 58.73,16.34 109.03,7.38 215.77,-39.39 106.74,-46.78 263.22,-121.2 263.22,-121.2 0,0 -4.44,78.37 9.35,156.54 0,0 -61.59,4.4 -93.14,12.29 -31.55,7.88 -63.89,-1.06 -95.71,-12.1 -31.81,-11.04 -194.27,2.09 -225.05,101.42 -30.77,99.33 30.9,141.18 50.04,156.83 19.12,15.65 44.17,33.04 118.25,35.82 74.08,2.79 125.34,2.08 150.6,-12.12 25.25,-14.21 68.95,-17.29 92.88,-16.37 23.93,0.92 45.34,8.99 66.52,23.21 21.18,14.23 49.32,20.28 75.66,15.02 z m 222.86,-260.65 c 37.91,-20.68 45.68,-61.4 22.17,-86.77 -23.52,-25.36 -65.27,-26.42 -107.81,-9.25 -42.54,17.18 -60.24,42.54 -58.13,67.12 5.12,59.61 110.28,47.17 143.77,28.9 z m -21.96,-13.31 c 0,0 -20.35,-19.82 -12.42,-74.25 0,0 -61.3,4.76 -80.59,31.97 -19.29,27.22 -0.53,44.13 22.99,48.62 23.51,4.49 56.55,1.58 70.02,-6.34 z m 19.33,-923.66 -43.11,-119.86 -69.39,-8.06 46.96,-63.09 -40.04,-101.61 c 0,0 86.42,-1.71 142.15,-0.66 55.73,1.05 67.66,1.05 70.81,1.05 3.15,0 15.07,-8.42 15.42,-22.43 0.35,-14.03 50.77,-243.6 50.77,-257.7 0,0 33.04,21.06 104.82,42.43 71.77,21.37 95.96,21.78 95.96,21.78 0,0 -17.79,278.66 -22.22,326.65 -4.43,47.99 -29.04,84.69 -59.69,96.38 -30.65,11.7 -164.54,62.11 -292.44,85.12 z m 181.04,-597.87 27.73,-126.96 180.84,67.75 -9.6,123.23 c 0,0 -102.42,-12.27 -198.97,-64.02 z m -695.61,211.91 61.72,63.74 25.41,-77.46 123.85,-6.86 c 0,0 4.22,-59 -45.87,-197.3 -50.1,-138.3 -104.04,-200.83 -246.39,-145.6 -142.35,55.22 -285.31,134.98 -285.31,134.98 l 71.17,176.72 c 0,0 134.37,-50.32 181.62,-67.5 47.25,-17.18 47.8,37.21 42.89,66.05 -4.91,28.84 -12.62,62.15 -12.62,62.15 z m -425.46,4.71 107.74,-45.6 -70.9,-176.73 -105.35,48.27 c 0,0 42.33,112.04 68.51,174.06 z m 322.67,1206.55 c 0,0 186.57,-92.08 223.16,-115.4 36.59,-23.32 64.06,-57.07 34.28,-140.04 -29.79,-82.96 -145.57,-50.14 -163.26,-39.68 -17.7,10.46 -213.78,130.99 -224.11,134.04 -10.34,3.04 -25.69,2.75 -38.91,-11.53 -13.22,-14.29 -51.29,-55.4 -72,-93.82 -20.7,-38.43 -32.9,-66.74 -32.9,-66.74 0,0 53.51,-10.26 54.83,-51.29 1.32,-41.02 -35.47,-50.29 -35.47,-50.29 0,0 -1.42,-98.18 -3.03,-114.98 -1.61,-16.81 -40.28,-21.18 -63.07,-7.83 0,0 -9.12,-29.18 -39.52,-33.55 -30.39,-4.37 -42.6,8.75 -42.6,8.75 0,0 -8.75,-16.34 -38.22,-10.36 -29.47,5.98 -27.63,23.95 -27.63,23.95 0,0 -38.69,-4.61 -37.99,26.94 0.69,31.54 14.05,93.4 34.76,144.88 20.71,51.47 48.88,81.22 48.88,81.22 0,0 19.52,85.11 54.2,167.8 34.69,82.68 101.3,185.92 152.48,196 51.17,10.07 91.07,4.02 216.12,-48.07 z m 932.84,83.83 c 0,0 20.29,34.27 72.47,14.77 52.19,-19.51 84.6,-30.05 82.23,-48.24 -2.37,-18.18 -33.2,-22.92 -54.82,-12.12 -21.61,10.81 -30.57,13.18 -32.68,8.96 -2.11,-4.21 6.33,-17.92 21.35,-21.87 15.02,-3.96 42.95,1.05 54.55,-5.8 11.6,-6.85 23.2,-10.28 34.79,-7.64 11.6,2.63 19.24,5.8 19.24,5.8 0,0 8.5,-10.53 18.81,-10.76 10.32,-0.22 37.69,5.62 37.69,5.62 0,0 6.72,-56.15 -24.66,-78.82 -31.37,-22.66 -31.72,-17.77 -39.04,-37.65 -7.33,-19.88 -44.04,-199.54 -64.72,-262.12 -20.68,-62.59 -39.67,-143.95 -155.45,-141.64 -115.77,2.3 -356.07,71.03 -356.07,71.03 0,0 15.91,66.46 24.34,114.2 8.42,47.73 12.83,93.85 12.83,93.85 0,0 123.15,-30.08 214.2,-49.73 91.06,-19.66 90.66,-21.26 109.11,11.23 18.45,32.49 90.83,207.67 90.83,207.67 0,0 -80.13,49.81 -65,143.26 z m 237.02,73.45 c 0,0 17.66,11.06 27.4,4.21 9.75,-6.85 11.59,-55.79 3.8,-95.66 -7.79,-39.86 -33.91,-46.73 -44.45,-43.99 -10.54,2.76 -13.98,12.84 -6.18,37.81 7.79,24.97 19.41,86.43 19.43,97.63 z m -59.4,34.37 c 0,0 2.11,19.74 24.49,12.11 22.37,-7.63 25.27,-28.96 21.85,-47.12 -3.42,-18.17 -19.82,-94.09 -24.84,-111.59 -5.01,-17.48 -18.01,-19.57 -29.44,-18.88 0,0 5.37,35.51 0.18,42.78 -5.19,7.28 -11.08,7.1 -11.08,7.1 0,0 10.53,67.72 18.84,115.6 z m -78.98,-8.39 c 0,0 -2.06,18.99 8.01,29.98 10.07,10.98 48.3,10.75 50.35,-19.69 2.06,-30.43 -7.33,-105.29 -7.33,-105.29 0,0 -9.35,5.38 -26.66,11.78 -17.31,6.4 -24.06,7.78 -24.06,7.78 z m -68.99,-61.06 c 0,0 25.79,4.74 55.53,-9.47 0,0 1.79,73.5 -0.73,88.6 -2.52,15.11 -19.69,23.57 -38.91,17.86 -19.22,-5.72 -14.19,-30.22 -15.34,-44.41 -1.14,-14.18 -0.55,-52.58 -0.55,-52.58 z m -291.54,15.7 c 0,0 0.43,-58.6 41.95,-100.82 41.53,-42.23 66.85,-59.16 62.32,-93.71 -4.54,-34.55 -20.59,-48.16 -63.86,-42.93 -43.28,5.24 -76.78,25.13 -76.78,25.13 0,0 -16.07,-50.72 -67.45,-121.76 l -284.57,68.24 c 0,0 -14.05,108.18 2.66,201.95 0,0 38.76,-3.13 54.24,24.19 15.48,27.31 44.62,24.29 70.72,22.16 26.11,-2.13 58.82,-2.3 90.5,32.03 31.69,34.32 63.64,40.8 97.79,18.63 34.15,-22.16 47.33,-32.14 72.48,-33.11"
       style="fill:#7b4cc7;fill-opacity:1;fill-rule:evenodd;stroke:none"
       transform="matrix(0.13333333,0,0,-0.13333333,0,800)" />
    <path
       id="path6"
       d="m 2572.14,4058.17 c 0,0 3.14,-51.56 56.53,-103.29 53.39,-51.73 69.2,-83.24 40.16,-133.73 -29.04,-50.5 -76.08,-32.76 -111.57,-19.95 -35.49,12.8 -44.28,19.03 -44.28,19.03 0,0 -26.7,-72.07 -62.06,-109.53 l 283.53,-108.6 c 0,0 42.51,59.76 72.4,112.37 29.88,52.62 32.4,69.87 32.4,69.87 0,0 -55.39,29.12 -49.92,87.21 5.47,58.09 71.45,58.33 71.45,58.33 0,0 3.37,95.46 51.28,107.01 47.9,11.56 62.82,-13 62.82,-13 0,0 26.23,20.42 56.17,15.18 29.93,-5.23 29.31,-21.56 29.31,-21.56 0,0 31.53,7.83 51.22,-2.43 19.68,-10.27 22.4,-37.7 22.4,-37.7 0,0 45.23,2.56 43.77,-45.06 -1.46,-47.63 -23.83,-84.07 -72.29,-140.12 -48.46,-56.04 -75.85,-63.62 -75.85,-63.62 0,0 -73.91,-256.25 -127.41,-337.06 -53.51,-80.82 -117.05,-73.02 -183.38,-60.2 -66.32,12.82 -352.99,96.47 -389.27,110.03 -36.29,13.56 -28.96,19.42 -41.79,8.79 -12.83,-10.62 -1.1,-16.12 12.46,-23.82 13.57,-7.69 47.29,-19.79 47.29,-19.79 0,0 -43.05,-154.6 -118.99,-237.91 0,0 106.59,-43.58 231.67,-91.58 125.08,-47.99 279.44,-115.08 301.24,-185.62 21.8,-70.53 -0.87,-137.76 -27.86,-199.33 -26.99,-61.56 -188.64,-394.77 -188.64,-394.77 0,0 4.63,-78.23 82.39,-131.78 77.76,-53.56 112.24,-34.49 145.62,-53.93 33.38,-19.44 43.83,-62.79 35.1,-95.29 -8.74,-32.51 -48.52,-72.29 -160.59,-41.73 -112.07,30.57 -215.41,123.23 -215.41,123.23 l -26.05,-54.58 -181.22,49.14 c 0,0 -0.08,79.71 24.14,139.89 24.22,60.18 60.17,111.55 60.17,111.55 l 107.11,342.25 c 0,0 -48.14,17.57 -157.65,51.09 -109.5,33.52 -143.02,41.82 -143.02,41.82 0,0 -12.2,83.09 -16.55,92.99 -4.35,9.9 -20.04,6.76 -19.8,-4.83 0.24,-11.59 29.37,-268.76 25.68,-377.36 -3.7,-108.59 -63.39,-162.66 -164.42,-178.69 -101.04,-16.03 -524.98,-20.59 -524.98,-20.59 0,0 -42.01,-51.84 -59.58,-92.1 -17.57,-40.25 -0.33,-98.52 0.79,-154.4 1.12,-55.88 -19.7,-98.08 -70.73,-100.03 -51.02,-1.94 -85.03,39.36 -102.04,123.42 -17.01,84.07 -4.5,197.15 15.34,236.84 l -1.1,6.61 -55.86,-11.75 -49.61,168.28 c 0,0 63.83,46.33 133.14,51.4 69.32,5.07 112.85,0.43 112.85,0.43 l 382.96,61.71 c 0,0 -55.6,210.05 -63.32,349.57 -7.72,139.52 -12.16,243.15 51.62,364.75 63.77,121.6 197.16,293.48 197.16,293.48 l -253.87,99.82 c 0,0 -58.18,-84.37 -86.7,-172.74 0,0 62.42,-62.11 61.3,-124.76 -1.12,-62.64 -40.83,-77.74 -40.83,-77.74 0,0 9.27,-61.76 -5.74,-98.2 -15.02,-36.43 -60.08,-21.7 -71.76,-6.12 0,0 -20.58,-18.34 -47.84,-13.06 -27.25,5.27 -48.95,30.03 -48.95,30.03 0,0 -14.7,-11.05 -39.97,-2.42 -25.28,8.64 -27.19,30.71 -27.19,30.71 0,0 -48.31,-4.48 -53.43,39.03 -5.12,43.51 11.51,173.93 31.46,217.72 19.95,43.79 51.09,64.72 51.09,64.72 0,0 40.54,239.28 121.4,324.4 80.86,85.12 144.7,60.44 303.86,28.09 159.17,-32.34 303.02,-102.99 303.02,-102.99 0,0 -22.8,129.53 48.12,329.91 0,0 -164.25,49.03 -168.63,131.78 -4.38,82.74 104.1,96.56 134.14,36.04 30.06,-60.53 57.14,-57.56 71.11,-40.64 13.97,16.93 101.68,104.94 216.8,82.94 115.13,-22.02 144.91,-75.51 158.05,-115.43 13.14,-39.91 21.47,-73.47 57.18,-73.1 35.71,0.37 41.24,23.93 92.77,21.35 51.54,-2.58 70.84,-42.8 67.48,-80.88 -3.36,-38.08 -37.5,-66.73 -83.65,-65.46 -46.15,1.27 -124.15,6.46 -124.15,6.46 z m -87.18,-20.82 c 39.48,-21.54 47.58,-63.95 23.08,-90.38 -24.49,-26.43 -67.99,-27.53 -112.31,-9.63 -44.31,17.89 -62.75,44.31 -60.55,69.91 5.34,62.1 114.88,49.14 149.78,30.1 z m -22.89,-13.86 c 0,0 -21.19,-20.65 -12.93,-77.35 0,0 -63.86,4.96 -83.96,33.31 -20.09,28.35 -0.55,45.97 23.95,50.65 24.5,4.68 58.91,1.65 72.94,-6.61 z m -719.96,-1322.88 95.5,-3.92 41.14,64.65 51.91,-55.34 125.86,2.94 c 0,0 10.57,-141.77 3.86,-237.86 -6.7,-96.09 -70.2,-136.58 -195.23,-141.65 -125.04,-5.07 -288.38,-5.07 -288.38,-5.07 0,0 -33.23,118.84 -41.68,194.87 0,0 161.39,22.15 192.91,25.13 31.52,2.99 38.33,17.04 38.33,27.27 0,10.21 -24.22,128.98 -24.22,128.98 z m -236.49,-185.32 c 0,0 41.32,-76.5 40.83,-193.61 l -126.91,0.98 -35.28,178.85 c 0,0 100.94,12.25 121.36,13.78 z m 834.42,438.78 64.09,110.08 c 0,0 181.76,-62.13 260.7,-117.14 78.94,-55 93.06,-141.31 45.98,-238.88 -47.07,-97.57 -121.32,-268.11 -121.32,-268.11 0,0 -106.4,38.3 -200.47,50.64 0,0 63.64,149.18 66.23,184.78 2.59,35.61 7.12,37.55 -10.36,45.32 -17.47,7.77 -177.38,58.91 -177.38,58.91 l 39.49,93.87 -45,80.48 z m 41.13,-490.15 c 0,0 62.45,-10.77 102.69,-21.07 40.24,-10.31 83.38,-31.55 83.38,-31.55 l -50.54,-109.46 -173.85,47.64 z m 87.81,1205.79 c 0,0 224.1,-81.83 247.48,-89.15 23.39,-7.31 34.59,-10.61 47.73,12.69 13.13,23.3 93.93,175.57 102.26,188.07 8.33,12.49 -13.78,24.34 -27.88,32.99 -14.09,8.65 -34.6,30.76 -22.42,61.52 12.17,30.76 51.58,30.76 60.23,33 8.65,2.24 8.92,13.96 10.76,37.55 1.85,23.58 10.22,68.75 40.02,69.39 29.8,0.64 46.14,-22.11 46.14,-22.11 0,0 30.53,22.42 56.49,19.86 25.96,-2.56 31.73,-22.75 31.73,-22.75 0,0 19.55,13.78 37.17,8.97 17.63,-4.81 17.31,-37.18 17.31,-37.18 0,0 36.22,-4.81 36.86,-24.68 0.64,-19.87 -18.71,-75.18 -53.48,-120.54 -34.76,-45.36 -80.97,-67.83 -80.97,-67.83 0,0 -66.54,-189.19 -111.68,-287.84 -45.14,-98.66 -90.27,-125.1 -190.86,-101.88 -100.59,23.21 -298.21,78.76 -346.97,115.34 -48.76,36.57 -39.66,112.83 1.28,156.58 40.94,43.74 98.8,38 98.8,38 z m -539.58,-48.51 147.06,180.6 c 0,0 -181.37,74.33 -330.48,109.94 -149.1,35.61 -209.21,15.67 -252.96,-58.93 -43.75,-74.6 -102.36,-298.18 -102.36,-298.18 0,0 -49.61,-35.68 -51.79,-72.06 -2.18,-36.38 -2.43,-43.9 -1.94,-45.36 0.48,-1.45 18.05,6.59 30.97,3.08 12.92,-3.51 14.84,-13.56 14.84,-13.56 0,0 13.08,12.29 34.45,12.29 21.38,0 22.17,-9.25 22.17,-9.25 0,0 42.14,1.56 66.72,-8.89 24.59,-10.47 27.88,-23.31 14.86,-22.21 -13.03,1.1 -45.14,14.86 -61.46,19.27 -16.33,4.4 -27.52,-9.18 -31.02,-22.02 -3.48,-12.85 13.22,-25.11 62.74,-45.49 49.51,-20.38 93.44,-17.48 104.12,9.71 10.68,27.18 1.73,72.65 -21.16,102.92 -22.89,30.27 -44.3,39.87 -44.3,39.87 0,0 24.91,72.72 58.51,134.39 33.6,61.66 47.26,76.81 60.56,76.43 13.29,-0.36 153.06,-31.96 280.47,-92.55 z m -420.86,-294.74 c 0,0 6.76,-4.23 16.91,-5.71 10.14,-1.48 36.78,-3.17 36.78,-3.17 0,0 3.72,-85.37 2.66,-91.5 -1.06,-6.14 -16.92,-13.76 -27.28,-12.91 -10.36,0.85 -18.4,4.02 -23.47,25.59 -5.08,21.57 -5.6,87.7 -5.6,87.7 z m -69.5,26.78 48.53,-20.25 c 0,0 3.52,-74.47 2.68,-91.24 -0.83,-16.77 -15.09,-20.4 -30.47,-18.73 -15.37,1.68 -25.71,10.06 -26.55,35.22 -0.84,25.17 5.81,95 5.81,95 z m -21,69.87 c 0,0 -19,7.27 -29.34,-12.29 -10.33,-19.56 -28.21,-100.42 -27.48,-136.38 0.73,-35.96 20.17,-35.72 26,-35.23 5.83,0.48 25.02,7.29 27.94,37.9 2.92,30.62 6.62,84.57 6.62,84.57 0,0 -31.93,34.63 -3.74,61.43 z m -46.7,-5.77 c 0,0 -4.75,11.18 -19.84,10.34 -15.08,-0.84 -29.86,-33.45 -39.82,-74.73 -9.97,-41.3 -7.12,-65.79 5.55,-72.13 12.68,-6.34 27.47,1.9 27.47,1.9 0,0 15.78,93.45 26.64,134.62 z m 1176.76,644.11 c 0,0 7.59,-72.87 59.69,-124.49 52.11,-51.62 42.6,-106.46 25.66,-116.62 -16.94,-10.17 -82.58,2.54 -105.45,14.81 -22.86,12.28 -24.13,13.14 -24.13,13.14 0,0 -15.95,-61.56 -79.72,-130.47 l -293.07,103.05 c 0,0 -22.12,166.38 52.24,326.37 0,0 68.53,-23.85 181.12,-51.29 112.6,-27.46 183.66,-34.5 183.66,-34.5"
       style="fill:#7b4cc7;fill-opacity:1;fill-rule:evenodd;stroke:none"
       transform="matrix(0.13333333,0,0,-0.13333333,0,800)" />
    <path
       id="path7"
       d="m 1949.54,2190.96 h 9 v -81 h -9 v 81"
       style="fill:#7b4cc7;fill-opacity:1;fill-rule:evenodd;stroke:none"
       transform="matrix(0.13333333,0,0,-0.13333333,0,800)" />
  </g>
</svg>
